<?xml version="1.0" encoding="UTF-8" ?>
<!DOCTYPE svg PUBLIC "-//W3C//DTD SVG 1.1//EN" "http://www.w3.org/Graphics/SVG/1.1/DTD/svg11.dtd">
<svg width="360pt" height="360pt" viewBox="0 0 360 360" version="1.1" xmlns="http://www.w3.org/2000/svg">
<g id="#000000ff">
<path fill="#000000" opacity="1.00" d=" M 160.61 4.84 C 191.58 1.42 223.48 6.28 251.92 19.08 C 283.69 33.21 311.05 57.00 329.54 86.44 C 346.72 113.69 356.39 145.76 356.51 178.01 C 357.02 200.91 352.76 223.87 344.37 245.18 C 331.12 278.83 307.24 308.17 276.99 328.01 C 248.44 346.90 214.25 357.20 180.00 357.01 C 146.47 357.19 113.00 347.34 84.82 329.19 C 55.51 310.47 31.95 282.89 18.05 251.01 C 8.05 228.09 2.93 203.00 3.49 177.98 C 3.64 140.24 16.85 102.80 39.86 72.95 C 68.67 35.13 113.28 9.78 160.61 4.84 M 166.62 12.82 C 137.19 15.07 108.45 25.37 84.24 42.26 C 53.23 63.67 29.78 95.80 18.98 131.92 C 12.83 151.99 10.88 173.21 12.42 194.10 C 15.01 227.24 27.83 259.46 48.67 285.34 C 69.60 311.63 98.58 331.39 130.72 341.21 C 162.39 350.92 196.94 351.00 228.65 341.40 C 261.02 331.66 290.23 311.82 311.29 285.39 C 332.79 258.71 345.76 225.28 347.79 191.07 C 349.82 158.91 342.56 126.19 326.63 98.15 C 310.85 69.99 286.76 46.58 258.18 31.58 C 230.28 16.76 198.09 10.27 166.62 12.82 Z" />
<path fill="#000000" opacity="1.00" d=" M 161.54 40.77 C 190.59 36.82 220.81 42.40 246.58 56.35 C 275.03 71.63 297.97 96.93 310.22 126.82 C 321.36 153.51 323.75 183.68 317.31 211.86 C 311.30 238.07 297.59 262.51 278.21 281.17 C 255.75 303.33 225.58 317.49 194.17 320.56 C 166.03 323.48 137.04 317.60 112.30 303.87 C 85.10 288.92 63.04 264.81 50.74 236.30 C 40.53 213.04 37.07 186.97 40.37 161.82 C 44.08 133.67 56.61 106.80 75.76 85.84 C 97.86 61.34 128.80 44.99 161.54 40.77 M 171.45 73.42 C 146.62 98.26 121.76 123.08 96.96 147.93 C 86.28 158.63 80.70 174.18 82.30 189.22 C 83.53 203.15 90.82 216.43 101.95 224.91 C 111.27 232.16 123.18 235.95 134.97 235.52 C 147.89 235.33 160.49 229.75 169.66 220.71 C 185.34 205.05 201.00 189.36 216.68 173.70 C 220.49 169.87 226.61 168.65 231.62 170.61 C 238.38 172.98 242.72 180.83 240.67 187.77 C 240.00 190.92 238.02 193.57 235.69 195.72 C 220.65 210.69 205.67 225.73 190.65 240.72 C 185.60 245.92 176.69 246.52 170.96 242.08 C 169.71 240.95 167.86 240.05 166.47 241.54 C 155.66 249.24 141.88 252.15 128.80 250.24 C 127.74 252.26 130.09 253.49 131.18 254.83 C 138.87 262.10 145.64 270.71 155.20 275.66 C 174.34 286.22 200.01 283.03 215.76 267.78 C 231.37 252.37 246.79 236.77 262.33 221.30 C 270.68 213.10 276.29 202.09 277.57 190.42 C 279.23 177.16 275.46 163.28 267.22 152.74 C 259.60 142.85 248.23 135.91 235.93 133.72 C 223.04 131.43 209.30 134.00 198.38 141.30 C 192.55 145.04 187.94 150.27 183.04 155.09 C 169.71 168.40 156.42 181.75 143.07 195.04 C 137.90 199.97 129.09 199.99 123.84 195.18 C 117.59 190.06 117.15 179.64 123.06 174.07 C 142.05 155.13 160.95 136.09 180.00 117.20 C 183.37 120.42 186.61 123.78 189.92 127.07 C 190.82 128.11 192.51 129.24 193.79 128.05 C 202.54 121.71 213.21 118.01 224.04 118.01 C 225.62 117.88 227.33 118.29 228.83 117.62 C 230.17 116.31 229.57 113.93 228.10 112.95 C 212.01 97.08 196.30 80.80 180.00 65.14 C 176.95 67.69 174.29 70.65 171.45 73.42 Z" />
</g>
<g id="#ffffffff">
<path fill="#ffffff" opacity="1.00" d=" M 166.62 12.82 C 198.09 10.27 230.28 16.76 258.18 31.58 C 286.76 46.58 310.85 69.99 326.63 98.15 C 342.56 126.19 349.82 158.91 347.79 191.07 C 345.76 225.28 332.79 258.71 311.29 285.39 C 290.23 311.82 261.02 331.66 228.65 341.40 C 196.94 351.00 162.39 350.92 130.72 341.21 C 98.58 331.39 69.60 311.63 48.67 285.34 C 27.83 259.46 15.01 227.24 12.42 194.10 C 10.88 173.21 12.83 151.99 18.98 131.92 C 29.78 95.80 53.23 63.67 84.24 42.26 C 108.45 25.37 137.19 15.07 166.62 12.82 M 161.54 40.77 C 128.80 44.99 97.86 61.34 75.76 85.84 C 56.61 106.80 44.08 133.67 40.37 161.82 C 37.07 186.97 40.53 213.04 50.74 236.30 C 63.04 264.81 85.10 288.92 112.30 303.87 C 137.04 317.60 166.03 323.48 194.17 320.56 C 225.58 317.49 255.75 303.33 278.21 281.17 C 297.59 262.51 311.30 238.07 317.31 211.86 C 323.75 183.68 321.36 153.51 310.22 126.82 C 297.97 96.93 275.03 71.63 246.58 56.35 C 220.81 42.40 190.59 36.82 161.54 40.77 Z" />
<path fill="#ffffff" opacity="1.00" d=" M 171.45 73.42 C 174.29 70.65 176.95 67.69 180.00 65.14 C 196.30 80.80 212.01 97.08 228.10 112.95 C 229.57 113.93 230.17 116.31 228.83 117.62 C 227.33 118.29 225.62 117.88 224.04 118.01 C 213.21 118.01 202.54 121.71 193.79 128.05 C 192.51 129.24 190.82 128.11 189.92 127.07 C 186.61 123.78 183.37 120.42 180.00 117.20 C 160.95 136.09 142.05 155.13 123.06 174.07 C 117.15 179.64 117.59 190.06 123.84 195.18 C 129.09 199.99 137.90 199.97 143.07 195.04 C 156.42 181.75 169.71 168.40 183.04 155.09 C 187.94 150.27 192.55 145.04 198.38 141.30 C 209.30 134.00 223.04 131.43 235.93 133.72 C 248.23 135.91 259.60 142.85 267.22 152.74 C 275.46 163.28 279.23 177.16 277.57 190.42 C 276.29 202.09 270.68 213.10 262.33 221.30 C 246.79 236.77 231.37 252.37 215.76 267.78 C 200.01 283.03 174.34 286.22 155.20 275.66 C 145.64 270.71 138.87 262.10 131.18 254.83 C 130.09 253.49 127.74 252.26 128.80 250.24 C 141.88 252.15 155.66 249.24 166.47 241.54 C 167.86 240.05 169.71 240.95 170.96 242.08 C 176.69 246.52 185.60 245.92 190.65 240.72 C 205.67 225.73 220.65 210.69 235.69 195.72 C 238.02 193.57 240.00 190.92 240.67 187.77 C 242.72 180.83 238.38 172.98 231.62 170.61 C 226.61 168.65 220.49 169.87 216.68 173.70 C 201.00 189.36 185.34 205.05 169.66 220.71 C 160.49 229.75 147.89 235.33 134.97 235.52 C 123.18 235.95 111.27 232.16 101.95 224.91 C 90.82 216.43 83.53 203.15 82.30 189.22 C 80.70 174.18 86.28 158.63 96.96 147.93 C 121.76 123.08 146.62 98.26 171.45 73.42 Z" />
</g>
</svg>
