<?xml version="1.0" encoding="UTF-8" ?>
<!DOCTYPE svg PUBLIC "-//W3C//DTD SVG 1.1//EN" "http://www.w3.org/Graphics/SVG/1.1/DTD/svg11.dtd">
<svg width="1602pt" height="552pt" viewBox="0 0 1602 552" version="1.1" xmlns="http://www.w3.org/2000/svg">
<g id="#ea1003ff">
<path fill="#ea1003" opacity="1.00" d=" M 140.55 38.46 C 146.87 30.52 154.47 22.43 164.88 20.38 C 177.83 17.27 190.63 23.02 201.53 29.53 C 219.73 40.88 239.56 50.48 261.01 53.42 C 278.35 55.69 295.91 54.20 313.15 51.79 C 330.05 50.45 347.43 50.90 363.64 56.36 C 381.56 62.08 396.54 74.25 409.67 87.36 C 416.71 94.15 422.50 102.75 424.06 112.56 C 425.59 123.04 425.13 134.13 420.86 143.94 C 418.35 148.99 415.08 154.14 409.90 156.75 C 406.35 158.75 401.32 156.95 399.82 153.17 C 395.05 145.34 398.44 135.89 396.58 127.38 C 391.82 131.89 384.63 130.66 379.72 127.09 C 377.98 136.00 372.91 144.32 365.19 149.24 C 359.34 153.01 352.22 154.26 345.36 153.75 C 354.38 166.16 358.14 181.69 358.47 196.86 C 354.71 195.47 351.17 193.17 347.20 192.51 C 341.90 194.62 337.56 198.59 333.54 202.53 C 324.52 212.36 317.08 224.49 315.73 238.00 C 315.21 241.51 316.43 244.90 317.77 248.08 C 322.59 249.54 327.29 251.35 331.85 253.50 C 325.44 263.57 319.15 273.72 312.86 283.86 C 309.86 289.34 306.37 294.51 302.68 299.54 C 292.87 308.33 281.75 315.59 270.27 322.00 C 273.92 326.15 277.31 330.51 280.69 334.88 C 275.89 343.24 270.74 351.39 265.46 359.46 C 262.52 363.33 260.27 367.65 258.04 371.95 C 254.18 370.45 249.89 367.83 245.69 369.70 C 242.07 371.91 241.93 376.55 241.41 380.30 C 237.67 384.16 239.04 390.29 242.88 393.54 C 241.78 395.24 241.13 397.16 240.55 399.08 C 239.36 401.90 237.61 404.43 235.99 407.01 C 230.32 416.02 224.76 425.11 219.00 434.06 C 216.54 437.26 218.36 441.54 220.73 444.22 C 225.73 449.94 233.17 454.04 240.90 453.73 C 243.04 453.77 244.09 451.69 245.12 450.18 C 251.86 438.93 258.68 427.73 265.51 416.55 C 267.22 414.18 266.46 411.15 266.43 408.48 C 263.61 412.81 261.06 417.31 258.26 421.66 C 254.41 420.46 250.34 419.42 247.15 416.82 C 244.04 414.28 241.62 410.81 240.48 406.95 C 241.14 405.19 242.13 403.59 243.06 401.97 C 248.94 406.38 256.72 405.73 263.65 405.43 C 264.27 406.08 264.88 406.74 265.50 407.41 C 266.83 407.78 268.17 408.19 269.51 408.53 C 268.37 414.67 271.58 420.18 275.44 424.64 C 277.06 424.59 278.68 424.55 280.31 424.52 C 283.65 420.64 287.05 416.16 286.60 410.73 C 286.94 405.48 286.96 400.22 287.29 394.97 C 287.49 391.54 287.22 387.85 285.08 385.00 C 288.80 377.57 293.31 370.58 297.95 363.71 C 306.07 372.41 312.29 383.81 311.78 396.01 C 311.96 401.83 309.82 407.36 307.02 412.36 C 318.18 411.46 330.54 414.02 338.22 422.77 C 344.71 429.47 345.67 439.94 342.19 448.35 C 353.46 452.59 363.75 458.91 374.15 464.90 C 386.00 471.98 400.24 477.40 414.14 473.82 C 423.19 472.00 431.96 466.97 441.43 468.74 C 445.83 469.45 450.88 471.95 451.35 476.94 C 452.42 483.80 446.78 488.97 441.96 492.86 C 429.71 502.02 414.46 507.78 399.03 507.05 C 393.71 506.61 388.34 506.76 383.04 506.00 C 365.48 504.22 348.94 497.67 332.06 492.96 C 311.05 486.63 288.94 483.38 266.99 484.80 C 251.43 486.21 235.84 488.39 220.92 493.15 C 219.39 493.63 217.86 494.13 216.33 494.63 C 209.55 496.78 202.80 499.04 196.10 501.41 C 194.68 501.95 193.30 502.57 191.95 503.24 C 185.75 505.75 179.11 507.05 172.53 508.15 C 171.68 508.27 169.98 508.52 169.13 508.64 C 165.13 509.06 161.11 509.22 157.09 509.22 C 155.84 509.21 154.59 509.19 153.35 509.15 C 149.26 508.87 145.16 508.50 141.11 507.80 C 139.92 507.58 138.73 507.35 137.55 507.11 C 135.80 506.73 134.07 506.31 132.35 505.87 C 131.30 505.55 130.26 505.19 129.22 504.85 C 126.89 504.03 124.56 503.20 122.27 502.30 C 121.11 501.82 119.97 501.33 118.85 500.80 C 116.23 499.41 113.66 497.93 111.22 496.26 C 110.10 495.40 109.00 494.55 107.94 493.64 C 106.90 492.69 105.88 491.74 104.87 490.78 C 101.94 487.58 99.68 483.84 97.85 479.94 C 95.14 472.05 96.43 463.05 101.23 456.23 C 109.09 445.13 121.79 438.51 134.69 435.08 C 132.23 429.69 132.03 423.70 132.96 417.93 C 127.56 414.57 121.72 411.99 116.40 408.51 C 110.43 405.68 111.79 397.60 113.75 392.55 C 114.63 393.19 115.53 393.81 116.49 394.35 C 114.77 397.19 114.22 400.44 114.30 403.72 C 119.09 404.37 122.52 400.51 124.62 396.74 C 125.22 395.68 125.78 394.60 126.36 393.53 C 126.75 392.84 127.52 391.44 127.91 390.75 C 128.59 389.53 129.29 388.33 129.94 387.11 L 130.22 386.46 C 131.06 384.59 131.82 382.69 132.48 380.75 C 133.53 377.72 133.58 374.50 133.66 371.33 C 132.20 371.31 130.74 371.30 129.28 371.28 C 128.51 373.00 127.79 374.73 127.12 376.50 C 126.11 375.89 125.08 375.34 124.01 374.84 C 126.23 371.28 129.52 366.20 134.46 367.65 C 139.79 370.28 145.18 372.80 150.37 375.71 C 150.93 371.18 151.97 366.50 154.93 362.89 C 156.48 360.85 158.87 359.49 159.95 357.10 C 153.58 356.05 147.83 352.18 144.05 347.00 C 142.06 344.40 142.06 341.01 141.74 337.91 C 128.98 332.06 116.08 324.95 107.16 313.83 C 108.67 313.78 110.19 313.76 111.71 313.67 C 114.15 317.33 118.58 318.48 122.38 320.15 C 127.52 322.12 132.63 324.35 138.09 325.23 C 168.23 329.48 200.02 324.14 226.42 308.71 C 238.21 301.84 248.91 293.09 257.94 282.85 C 261.82 278.26 264.92 273.08 268.28 268.11 C 269.19 266.36 271.08 264.63 270.00 262.47 C 272.26 259.75 273.51 256.40 274.76 253.14 C 277.91 245.41 279.78 237.21 280.99 228.97 C 282.44 216.94 281.03 204.75 278.66 192.93 C 274.40 173.57 266.91 154.80 255.64 138.44 C 254.86 137.30 254.05 136.19 253.25 135.08 C 244.04 122.63 232.82 111.67 220.08 102.86 C 205.46 92.79 189.48 84.15 172.03 80.25 C 154.84 76.34 137.07 77.74 119.65 78.88 C 115.60 79.21 111.53 79.31 107.48 79.05 C 103.07 78.63 98.35 77.10 95.72 73.30 C 92.74 68.70 93.08 62.47 95.75 57.81 C 98.41 53.47 102.81 50.49 107.42 48.51 C 117.38 44.26 128.26 42.53 139.04 42.44 C 139.40 41.07 139.62 39.60 140.55 38.46 M 196.44 364.96 C 195.65 369.02 198.18 372.54 200.91 375.22 C 200.05 378.97 198.58 383.30 201.38 386.63 C 203.80 390.82 209.47 390.35 213.14 388.21 C 214.59 389.47 215.79 391.62 217.98 391.53 C 220.71 392.10 222.44 389.66 224.18 388.04 C 226.20 389.35 228.32 391.10 230.92 390.46 C 233.73 389.63 235.68 386.86 236.01 384.00 C 236.99 381.16 234.77 378.36 235.40 375.55 C 237.47 373.11 239.83 370.44 239.65 367.01 C 240.06 362.33 236.51 358.56 232.96 356.07 C 226.58 351.81 218.51 351.80 211.17 352.62 C 204.82 354.04 197.48 357.86 196.44 364.96 Z" />
<path fill="#ea1003" opacity="1.00" d=" M 372.38 195.13 C 378.96 196.58 384.47 200.95 388.72 206.02 C 387.17 209.08 385.34 212.00 383.43 214.86 C 378.85 210.19 373.70 206.05 368.05 202.74 C 369.32 200.11 370.81 197.59 372.38 195.13 Z" />
<path fill="#ea1003" opacity="1.00" d=" M 334.61 255.06 C 341.10 258.21 347.02 262.38 352.75 266.72 C 350.70 269.15 349.22 271.99 347.45 274.61 C 347.17 274.68 346.62 274.81 346.35 274.87 C 344.26 272.32 342.87 269.04 339.99 267.23 C 338.70 267.06 337.85 267.62 337.43 268.91 C 340.05 272.13 342.58 275.43 344.57 279.08 C 343.00 282.24 341.11 285.23 339.20 288.19 C 337.76 280.44 330.75 275.15 323.53 273.09 C 327.32 267.14 331.23 261.25 334.61 255.06 M 332.38 265.10 C 333.11 265.52 334.55 266.35 335.28 266.77 C 337.20 264.75 336.33 262.90 333.85 262.09 C 333.48 262.85 332.75 264.35 332.38 265.10 Z" />
<path fill="#ea1003" opacity="1.00" d=" M 308.89 296.51 C 313.34 289.85 317.31 282.89 321.78 276.24 C 326.21 277.60 330.67 279.72 333.43 283.61 C 336.41 287.37 336.55 293.02 333.95 297.02 C 330.76 302.30 327.45 307.52 324.42 312.91 C 324.35 308.49 324.35 303.35 320.82 300.13 C 317.71 296.99 313.12 296.28 308.89 296.51 Z" />
<path fill="#ea1003" opacity="1.00" d=" M 304.58 303.61 C 308.35 298.01 318.21 299.27 320.23 305.77 C 322.50 314.67 317.30 322.83 313.34 330.36 C 310.70 335.47 307.03 340.94 300.99 342.16 C 298.58 343.02 295.62 341.35 295.35 338.77 C 294.67 334.40 296.26 330.09 298.15 326.23 C 300.36 321.95 303.32 317.58 308.04 315.87 C 307.97 321.90 302.70 325.54 300.10 330.41 C 301.42 330.44 303.13 331.35 304.20 330.12 C 307.71 326.57 311.11 322.15 311.48 317.00 C 311.87 313.68 307.98 311.18 305.18 313.14 C 297.48 317.70 292.97 326.44 291.67 335.08 C 290.96 339.07 292.64 343.74 296.59 345.35 C 299.29 346.01 302.09 345.38 304.81 345.13 C 301.83 349.74 299.21 354.57 296.16 359.12 C 293.74 363.15 287.81 361.78 284.74 359.23 C 280.48 355.32 280.98 349.01 281.66 343.79 C 282.25 338.61 285.42 334.34 288.07 330.04 C 293.60 321.24 299.05 312.40 304.58 303.61 Z" />
<path fill="#ea1003" opacity="1.00" d=" M 263.29 369.86 C 268.07 362.13 273.32 354.67 277.51 346.58 C 277.51 351.70 277.89 357.44 281.77 361.25 C 284.46 364.30 288.68 364.80 292.44 365.48 C 289.10 371.10 285.37 376.50 282.49 382.39 C 280.01 377.04 277.68 370.65 271.73 368.31 C 268.90 366.71 265.87 368.69 263.29 369.86 Z" />
<path fill="#ea1003" opacity="1.00" d=" M 237.47 411.23 C 237.66 411.27 238.04 411.35 238.23 411.38 C 240.18 414.15 241.88 417.17 244.61 419.27 C 247.82 422.22 252.07 423.50 256.17 424.67 C 252.21 432.49 247.16 439.69 242.82 447.29 C 237.28 441.59 231.30 435.52 223.05 434.22 C 224.99 431.30 226.62 428.17 228.67 425.33 C 228.89 425.32 229.31 425.31 229.53 425.31 C 232.76 428.74 236.30 432.55 241.09 433.57 C 241.43 433.14 242.11 432.29 242.45 431.86 C 241.21 429.58 238.54 428.81 236.60 427.29 C 234.23 425.80 232.75 423.37 231.27 421.07 C 233.40 417.83 235.22 414.39 237.47 411.23 M 245.21 432.15 C 245.21 432.94 245.19 434.52 245.18 435.31 C 245.92 435.30 247.40 435.29 248.14 435.28 C 248.39 434.32 248.62 433.37 248.82 432.41 C 247.61 432.31 246.41 432.23 245.21 432.15 Z" />
</g>
<g id="#ffffffff">
<path fill="#ffffff" opacity="1.00" d=" M 119.65 78.88 C 137.07 77.74 154.84 76.34 172.03 80.25 C 189.48 84.15 205.46 92.79 220.08 102.86 C 232.82 111.67 244.04 122.63 253.25 135.08 C 239.98 148.81 230.99 166.85 229.15 185.94 C 228.07 197.39 229.54 209.48 235.43 219.54 C 240.10 227.58 247.89 233.92 256.99 236.14 C 259.00 236.59 262.36 237.13 261.46 233.93 C 257.78 231.96 253.50 231.40 249.97 229.13 C 242.08 224.49 236.92 216.25 234.51 207.58 C 230.90 194.60 232.54 180.65 237.04 168.10 C 241.11 157.11 247.14 146.61 255.64 138.44 C 266.91 154.80 274.40 173.57 278.66 192.93 C 281.03 204.75 282.44 216.94 280.99 228.97 C 279.78 237.21 277.91 245.41 274.76 253.14 C 271.63 255.86 268.58 258.69 265.41 261.37 C 251.70 272.67 235.27 280.35 218.16 284.90 C 218.18 282.32 218.21 279.74 218.23 277.16 C 223.96 275.67 230.61 274.21 233.97 268.80 C 235.94 265.78 234.58 262.15 233.27 259.18 C 232.47 259.36 230.88 259.74 230.09 259.93 C 230.50 262.71 232.20 266.26 229.50 268.42 C 222.40 274.20 212.66 273.59 204.07 274.17 C 203.83 274.40 203.34 274.86 203.09 275.09 C 202.77 285.55 204.76 296.64 200.62 306.59 C 198.18 312.77 190.56 312.61 185.03 312.26 C 179.24 311.65 171.44 311.47 168.90 305.11 C 164.68 294.93 167.49 283.69 166.75 273.06 C 166.78 271.07 164.37 271.15 163.03 270.71 C 162.62 278.44 162.42 286.19 162.55 293.94 C 162.56 298.28 162.54 302.81 160.80 306.88 C 159.27 310.38 155.40 312.03 151.81 312.42 C 146.99 312.89 141.86 312.61 137.46 310.40 C 133.40 308.26 131.75 303.61 130.56 299.46 C 127.99 289.49 128.83 279.05 127.17 268.94 C 127.13 266.75 124.68 266.97 123.16 266.89 C 123.45 278.72 124.92 291.07 120.40 302.35 C 119.28 305.80 116.57 308.78 112.91 309.49 C 106.50 310.77 99.17 310.33 93.82 306.20 C 90.61 303.76 89.26 299.75 88.57 295.94 C 86.79 285.37 86.57 274.60 84.74 264.04 C 84.03 260.55 83.31 256.82 80.87 254.07 C 78.65 251.62 75.97 249.66 73.61 247.36 C 56.18 230.47 43.21 208.26 39.97 183.98 C 37.03 163.59 41.95 142.31 53.09 125.03 C 67.96 101.45 93.20 86.18 119.65 78.88 M 92.15 108.01 C 90.75 108.59 89.32 109.08 87.92 109.63 C 85.54 110.96 83.28 112.49 81.13 114.17 C 78.90 115.98 76.69 117.91 75.13 120.36 L 74.73 120.51 C 73.94 121.66 73.23 122.86 72.40 123.98 C 72.38 124.23 72.35 124.73 72.34 124.98 C 70.98 126.49 71.40 128.63 71.29 130.48 L 69.61 130.99 L 71.22 131.52 C 70.43 135.86 74.86 138.96 78.84 137.61 C 83.49 135.64 86.06 130.67 90.72 128.65 C 93.00 128.68 95.28 128.69 97.56 128.63 L 97.45 129.40 C 98.44 129.38 100.42 129.35 101.41 129.34 L 101.51 128.78 C 104.43 128.93 107.02 127.37 108.76 125.13 C 108.68 124.73 108.50 123.93 108.42 123.53 L 109.66 123.48 C 109.82 119.91 109.90 116.24 108.49 112.88 C 107.00 110.85 105.24 109.01 102.95 107.90 C 99.41 107.07 95.67 107.04 92.15 108.01 M 179.01 109.94 C 175.45 112.37 173.37 116.72 174.93 120.95 C 175.90 122.11 176.99 123.16 177.95 124.33 C 179.67 124.90 181.40 125.48 183.14 126.01 C 184.58 126.36 186.05 126.59 187.54 126.75 L 187.60 127.34 C 188.89 127.76 190.18 128.18 191.46 128.61 L 191.37 129.58 L 192.28 129.53 C 193.09 130.85 193.91 132.17 194.70 133.50 L 195.65 133.55 C 195.52 134.00 195.28 134.89 195.15 135.34 L 196.54 135.53 C 196.49 135.92 196.39 136.69 196.34 137.07 C 197.53 138.44 198.78 139.77 200.03 141.08 C 202.56 142.13 205.41 141.85 207.97 141.09 C 213.00 136.99 212.79 129.25 209.68 124.07 C 209.65 123.79 209.59 123.24 209.57 122.96 C 207.12 119.62 204.29 116.53 200.91 114.12 C 198.97 112.96 196.94 111.99 194.93 110.98 C 193.79 110.69 192.65 110.43 191.50 110.19 L 191.45 109.53 C 187.31 109.35 183.06 108.79 179.01 109.94 M 166.15 129.15 C 158.90 130.72 152.93 135.77 148.61 141.60 C 140.79 152.35 137.87 165.96 137.94 179.07 C 138.35 192.78 142.09 207.10 151.53 217.43 C 157.31 223.94 166.16 228.10 174.96 226.61 C 184.47 225.01 191.91 217.67 196.58 209.60 C 204.05 196.30 205.81 180.32 203.39 165.41 C 201.33 153.67 196.29 141.80 186.75 134.23 C 181.07 129.61 173.34 127.54 166.15 129.15 M 92.24 135.35 C 88.10 136.71 84.96 140.01 82.62 143.56 C 76.70 152.85 74.81 164.12 74.54 174.97 C 74.50 185.74 76.06 196.96 81.65 206.36 C 84.62 211.33 89.76 216.00 95.97 215.32 C 102.68 214.59 107.23 208.64 110.10 203.04 C 115.96 190.82 117.09 176.74 115.41 163.42 C 114.03 154.43 111.46 144.85 104.57 138.45 C 101.38 135.31 96.53 133.98 92.24 135.35 M 119.84 228.79 C 116.53 226.46 112.26 224.46 108.26 226.38 C 101.03 229.57 100.22 240.20 105.29 245.65 C 110.27 251.04 116.90 254.50 123.13 258.22 C 125.15 259.61 126.71 257.13 127.76 255.76 C 131.65 250.25 137.17 245.62 139.15 238.97 C 141.08 232.33 136.60 223.46 129.07 223.45 C 125.15 223.21 122.20 226.06 119.84 228.79 M 265.16 234.12 C 263.08 235.25 264.43 238.50 266.73 237.72 C 269.08 236.81 267.50 233.06 265.16 234.12 M 272.26 234.35 C 270.26 236.04 272.30 238.78 274.55 237.75 C 276.28 236.05 274.47 233.33 272.26 234.35 Z" />
<path fill="#ffffff" opacity="1.00" d=" M 1364.55 191.12 C 1384.68 191.12 1404.80 191.12 1424.93 191.13 C 1420.07 230.28 1415.23 269.43 1410.35 308.58 C 1423.12 299.67 1437.24 291.70 1452.99 289.98 C 1468.07 288.29 1484.60 289.54 1497.26 298.71 C 1508.04 306.38 1513.93 319.20 1515.90 332.00 C 1517.96 344.60 1516.86 357.44 1515.38 370.04 C 1511.78 399.19 1508.22 428.35 1504.64 457.50 C 1484.49 457.50 1464.34 457.51 1444.20 457.50 C 1447.39 431.70 1450.48 405.90 1453.78 380.12 C 1454.81 370.51 1455.99 360.35 1452.54 351.07 C 1450.51 345.58 1445.60 341.36 1439.87 340.20 C 1433.25 338.90 1426.13 339.20 1419.86 341.83 C 1413.90 344.33 1409.73 349.75 1407.29 355.58 C 1403.07 365.56 1402.00 376.46 1400.70 387.11 C 1397.84 410.57 1394.93 434.03 1392.10 457.49 C 1371.96 457.51 1351.81 457.50 1331.68 457.50 C 1342.63 368.71 1353.61 279.92 1364.55 191.12 Z" />
<path fill="#ffffff" opacity="1.00" d=" M 1147.16 193.07 C 1155.98 191.76 1165.20 191.80 1173.89 194.04 C 1175.18 194.40 1176.52 194.73 1177.82 195.16 C 1179.23 195.65 1180.62 196.18 1182.05 196.67 C 1191.05 200.63 1199.39 207.95 1201.56 217.91 C 1203.03 226.08 1198.43 234.00 1192.25 239.01 C 1192.12 241.82 1194.12 244.22 1194.43 247.01 C 1195.60 253.84 1194.06 262.24 1187.74 266.14 C 1184.63 268.49 1180.46 267.86 1176.92 267.09 C 1174.87 265.74 1172.95 264.22 1171.15 262.56 C 1168.42 268.23 1161.86 271.01 1155.84 269.37 C 1153.28 267.83 1151.19 265.69 1149.75 263.07 C 1147.38 263.85 1145.47 265.58 1143.13 266.39 C 1139.78 267.15 1136.31 266.84 1133.00 266.16 C 1127.05 263.10 1122.93 256.72 1123.09 249.97 C 1122.92 246.39 1124.04 242.95 1125.53 239.74 C 1126.48 238.17 1124.44 237.21 1123.64 236.21 C 1118.66 230.90 1114.68 223.34 1116.91 215.93 C 1119.31 205.23 1129.51 198.67 1139.18 195.17 C 1141.78 194.29 1144.43 193.54 1147.16 193.07 M 1142.19 202.41 C 1135.53 204.60 1128.64 208.30 1125.54 214.92 C 1123.46 219.07 1124.08 224.23 1126.78 227.95 C 1128.80 231.56 1133.19 233.10 1134.82 237.00 C 1136.11 239.81 1133.32 241.89 1132.24 244.19 C 1129.65 248.90 1130.62 256.40 1136.07 258.65 C 1138.10 259.98 1140.46 258.79 1142.63 258.46 C 1144.16 256.75 1145.87 255.00 1146.33 252.65 C 1147.18 249.92 1146.53 246.10 1149.59 244.61 C 1152.14 242.31 1155.67 244.05 1156.86 246.89 C 1155.93 251.74 1154.14 257.25 1157.73 261.51 C 1162.40 263.58 1165.72 258.06 1165.52 254.03 C 1165.87 250.99 1163.29 247.38 1165.99 244.94 C 1167.55 242.82 1170.81 242.08 1172.74 244.16 C 1175.56 247.39 1173.82 252.32 1176.17 255.82 C 1177.47 258.50 1180.64 260.90 1183.72 259.67 C 1186.53 257.39 1187.22 253.37 1186.88 249.93 C 1186.86 245.97 1183.82 242.95 1183.26 239.11 C 1184.40 233.82 1190.14 231.91 1192.27 227.21 C 1194.68 222.92 1194.07 217.46 1191.50 213.39 C 1188.06 209.03 1183.35 205.77 1178.23 203.71 C 1166.85 199.12 1153.88 198.90 1142.19 202.41 Z" />
<path fill="#ffffff" opacity="1.00" d=" M 1144.41 207.57 C 1150.48 204.94 1157.66 209.59 1158.93 215.80 C 1161.23 223.91 1154.20 232.67 1145.93 232.69 C 1140.62 232.35 1136.78 227.70 1135.64 222.81 C 1134.46 216.48 1138.44 209.84 1144.41 207.57 Z" />
<path fill="#ffffff" opacity="1.00" d=" M 1171.48 210.61 C 1180.32 208.05 1189.06 217.50 1186.94 226.13 C 1185.86 232.04 1179.72 236.22 1173.85 235.75 C 1166.59 235.27 1160.53 227.77 1162.18 220.59 C 1162.90 215.83 1166.72 211.57 1171.48 210.61 Z" />
<path fill="#ffffff" opacity="1.00" d=" M 386.28 217.77 C 387.04 216.41 387.82 215.05 388.63 213.72 C 407.89 213.79 427.14 213.72 446.40 213.75 C 450.61 238.86 454.82 263.97 459.05 289.08 C 462.04 307.30 465.51 325.47 467.39 343.86 C 468.82 357.39 469.63 370.97 470.48 384.55 C 473.62 373.45 476.49 362.25 480.61 351.46 C 499.21 305.60 517.61 259.66 536.09 213.75 C 555.63 213.74 575.17 213.76 594.70 213.74 C 601.12 251.19 607.47 288.64 613.90 326.08 C 616.79 345.50 618.02 365.11 619.53 384.67 C 622.40 375.00 625.19 365.30 628.70 355.83 C 647.61 308.56 666.10 261.11 684.80 213.75 C 707.15 213.76 729.50 213.74 751.85 213.76 C 716.85 295.00 681.95 376.29 646.92 457.52 C 623.74 457.48 600.57 457.52 577.39 457.50 C 573.10 432.04 568.79 406.59 564.48 381.14 C 561.65 363.74 558.13 346.42 556.82 328.81 C 555.96 318.44 555.67 308.03 555.46 297.62 C 550.53 314.68 545.23 331.66 538.42 348.08 C 523.59 384.56 508.74 421.04 493.88 457.51 C 471.79 457.49 449.71 457.52 427.62 457.49 C 421.52 423.36 415.45 389.22 409.34 355.08 C 409.03 353.02 408.29 350.96 408.71 348.87 C 409.43 347.11 410.19 345.37 410.90 343.62 L 411.37 343.35 C 413.48 337.96 415.60 332.55 416.93 326.90 C 417.83 323.63 418.52 320.30 418.92 316.93 C 419.66 313.66 419.68 310.31 419.84 306.99 C 420.75 302.87 420.37 298.63 420.42 294.46 L 419.63 294.53 C 420.24 284.50 417.73 274.64 414.98 265.09 C 414.65 264.08 414.31 263.07 413.98 262.08 C 413.03 259.39 411.98 256.75 410.94 254.11 C 405.06 240.65 397.00 227.89 386.28 217.77 Z" />
<path fill="#ffffff" opacity="1.00" d=" M 348.49 218.23 L 348.41 217.63 C 355.00 216.49 361.60 218.10 367.17 221.72 C 369.84 223.76 372.23 226.14 374.35 228.76 C 376.37 232.53 378.48 236.95 376.25 241.12 C 375.99 241.47 375.46 242.16 375.20 242.51 L 374.40 242.39 L 374.46 243.63 C 374.13 243.60 373.48 243.54 373.16 243.51 C 371.02 244.64 368.52 244.72 366.30 245.64 C 366.32 246.94 366.34 248.24 366.38 249.54 L 365.68 249.54 C 365.26 250.80 364.77 252.03 364.36 253.30 C 362.93 254.19 361.43 254.97 359.89 255.65 C 359.53 255.31 358.80 254.63 358.44 254.29 C 358.01 252.84 357.71 251.36 357.56 249.86 C 358.63 248.16 359.47 246.32 359.83 244.34 C 358.52 244.32 357.21 244.33 355.91 244.35 C 355.41 245.75 354.90 247.15 354.38 248.54 L 353.32 248.30 L 353.61 249.51 C 351.89 249.58 350.17 249.64 348.45 249.63 C 348.46 247.88 348.48 246.14 348.53 244.39 L 349.66 244.63 L 349.42 243.69 C 349.99 243.31 351.13 242.55 351.70 242.17 C 351.68 241.19 351.66 240.20 351.66 239.22 C 349.44 239.00 347.64 239.91 346.41 241.74 L 346.38 242.75 C 345.96 242.61 345.12 242.33 344.69 242.19 L 344.50 243.64 C 342.89 242.91 340.71 242.92 339.60 241.36 C 338.93 239.17 338.92 236.61 340.52 234.81 C 340.51 234.55 340.48 234.04 340.46 233.78 C 341.09 233.46 342.35 232.84 342.98 232.52 C 343.31 232.60 343.95 232.76 344.28 232.84 C 344.63 231.98 345.34 230.26 345.69 229.40 L 344.61 229.58 C 344.07 225.45 343.78 220.01 348.49 218.23 M 350.52 224.94 C 350.39 226.82 350.34 228.70 350.35 230.58 C 352.31 233.23 355.62 232.76 358.52 232.65 L 358.57 231.88 C 359.54 231.42 360.38 230.81 361.12 230.03 C 362.24 227.14 361.89 223.64 359.04 221.91 C 357.41 221.51 355.72 221.70 354.08 221.90 C 352.90 222.92 351.74 223.97 350.52 224.94 M 361.47 232.90 C 361.35 234.95 361.11 237.02 361.43 239.06 C 362.56 241.80 365.80 242.54 368.47 242.61 L 368.61 241.36 C 368.98 241.46 369.72 241.67 370.09 241.77 C 372.25 239.63 372.95 236.81 372.49 233.86 C 371.45 232.67 370.35 231.53 369.21 230.45 C 366.29 230.01 363.50 230.66 361.47 232.90 Z" />
<path fill="#ffffff" opacity="1.00" d=" M 391.46 240.65 C 391.11 238.52 391.26 235.72 394.29 236.46 C 395.26 238.75 394.46 241.37 391.46 240.65 Z" />
<path fill="#ffffff" opacity="1.00" d=" M 1241.72 240.50 C 1261.85 240.50 1281.98 240.50 1302.12 240.50 C 1299.90 258.37 1297.74 276.25 1295.53 294.12 C 1306.24 294.12 1316.96 294.12 1327.68 294.12 C 1325.88 309.62 1324.00 325.12 1322.21 340.62 C 1311.48 340.62 1300.75 340.62 1290.03 340.62 C 1285.19 379.58 1280.30 418.54 1275.44 457.50 C 1255.44 457.49 1235.44 457.51 1215.45 457.49 C 1220.16 418.53 1224.93 379.58 1229.65 340.62 C 1221.13 340.63 1212.61 340.61 1204.10 340.63 C 1205.92 325.13 1207.77 309.63 1209.59 294.12 C 1218.23 294.12 1226.87 294.12 1235.51 294.12 C 1237.58 276.25 1239.65 258.37 1241.72 240.50 Z" />
<path fill="#ffffff" opacity="1.00" d=" M 394.43 245.90 C 393.13 243.66 393.90 241.96 396.20 240.89 C 396.85 241.96 397.94 243.03 397.60 244.41 C 396.80 245.34 395.50 245.46 394.43 245.90 Z" />
<path fill="#ffffff" opacity="1.00" d=" M 396.16 247.76 C 397.68 246.40 399.79 246.35 400.42 248.55 C 408.18 266.23 412.22 285.66 411.71 304.99 C 411.89 316.16 409.95 327.41 405.57 337.70 C 404.42 337.64 403.28 337.58 402.15 337.52 C 403.11 332.33 405.59 327.55 406.40 322.31 C 408.00 312.98 408.97 303.42 407.76 293.99 C 406.86 278.00 402.32 262.46 396.16 247.76 Z" />
<path fill="#ffffff" opacity="1.00" d=" M 917.13 308.16 C 931.50 296.05 950.23 289.35 969.00 289.36 C 978.83 289.22 988.92 290.11 998.04 294.06 C 1007.67 298.14 1015.60 305.21 1022.90 312.54 C 1023.04 306.40 1023.13 300.26 1023.27 294.12 C 1043.40 294.12 1063.53 294.12 1083.66 294.12 C 1076.97 348.58 1070.24 403.04 1063.57 457.51 C 1043.44 457.49 1023.31 457.51 1003.18 457.50 C 1004.62 451.62 1006.04 445.73 1007.50 439.86 C 996.85 449.50 984.44 458.02 970.07 460.70 C 952.18 463.96 932.63 462.74 916.74 453.21 C 902.74 445.01 892.96 430.84 888.35 415.46 C 883.11 398.16 882.94 379.54 886.34 361.86 C 890.43 341.29 900.88 321.65 917.13 308.16 M 976.54 337.75 C 968.11 339.53 960.53 344.54 955.25 351.30 C 946.97 361.85 943.99 376.09 946.33 389.19 C 947.85 397.86 952.87 406.09 960.60 410.55 C 974.11 418.34 992.75 415.92 1003.62 404.63 C 1013.11 395.13 1016.96 381.17 1016.26 368.01 C 1015.80 359.20 1012.54 350.14 1005.73 344.26 C 997.84 337.42 986.54 335.68 976.54 337.75 Z" />
<path fill="#ffffff" opacity="1.00" d=" M 752.76 294.12 C 772.90 294.12 793.03 294.12 813.17 294.12 C 811.59 301.47 810.04 308.81 808.46 316.16 C 816.65 308.88 825.47 301.91 835.88 298.12 C 848.20 293.57 861.64 293.57 874.56 294.81 C 872.35 313.37 870.15 331.94 867.96 350.51 C 855.65 343.30 840.56 341.23 826.76 344.80 C 819.84 346.60 813.83 351.27 810.24 357.44 C 804.98 366.36 803.12 376.76 801.62 386.88 C 798.75 410.42 795.90 433.96 793.08 457.50 C 772.95 457.50 752.82 457.51 732.70 457.50 C 739.37 403.04 746.08 348.58 752.76 294.12 Z" />
<path fill="#ffffff" opacity="1.00" d=" M 1106.70 457.50 C 1113.37 403.03 1120.08 348.58 1126.77 294.12 C 1146.90 294.12 1167.03 294.12 1187.16 294.12 C 1180.47 348.58 1173.74 403.04 1167.07 457.50 C 1146.95 457.50 1126.82 457.51 1106.70 457.50 Z" />
<path fill="#ffffff" opacity="1.00" d=" M 94.08 338.01 C 93.43 335.29 96.20 332.96 98.74 333.16 C 100.44 334.33 100.85 336.59 101.35 338.47 C 102.67 345.40 102.63 352.49 103.72 359.46 C 102.27 359.84 100.83 360.22 99.39 360.60 C 97.17 353.21 94.78 345.73 94.08 338.01 Z" />
<path fill="#ffffff" opacity="1.00" d=" M 399.35 339.35 C 400.44 339.35 401.53 339.36 402.62 339.37 C 402.63 340.45 402.64 341.53 402.66 342.62 C 401.53 342.65 400.40 342.70 399.27 342.74 C 399.29 341.61 399.32 340.48 399.35 339.35 Z" />
<path fill="#ffffff" opacity="1.00" d=" M 76.66 340.74 C 78.27 340.43 80.02 340.32 80.88 342.04 C 85.74 348.79 89.98 355.99 95.05 362.61 C 93.94 363.53 92.84 364.46 91.73 365.39 C 87.23 360.51 82.65 355.65 78.82 350.21 C 76.82 347.48 76.55 344.01 76.66 340.74 Z" />
<path fill="#ffffff" opacity="1.00" d=" M 211.49 356.67 C 218.35 355.44 226.01 355.93 231.82 360.15 C 234.26 361.81 236.25 364.79 235.62 367.84 C 234.99 370.87 232.04 372.47 230.58 375.01 C 230.72 378.50 232.99 382.11 231.33 385.54 C 230.00 388.00 226.98 385.34 226.65 383.49 C 225.84 381.37 226.37 377.14 222.98 377.68 C 218.72 379.42 222.63 385.56 218.83 388.07 C 217.93 387.11 216.73 386.29 216.29 385.00 C 216.44 382.37 218.21 379.24 215.15 377.59 C 210.86 378.19 212.23 383.31 209.62 385.66 C 207.91 386.02 205.79 386.12 204.57 384.63 C 203.41 381.55 204.21 378.14 206.29 375.67 C 204.54 372.28 200.16 370.15 200.29 365.94 C 201.12 360.53 206.70 357.81 211.49 356.67 M 209.95 359.75 C 205.66 361.57 204.14 367.93 207.80 371.13 C 211.55 375.01 218.38 371.04 218.31 366.08 C 219.06 361.61 214.07 357.71 209.95 359.75 M 224.11 361.09 C 218.91 362.36 217.66 370.06 222.08 372.97 C 225.87 376.47 232.90 373.09 232.57 367.94 C 232.79 363.66 228.32 359.66 224.11 361.09 Z" />
<path fill="#ffffff" opacity="1.00" d=" M 93.57 369.06 C 95.83 366.01 99.21 364.22 102.78 363.17 C 101.01 366.10 98.87 370.29 101.60 373.36 C 104.95 376.74 110.14 374.96 114.26 374.46 C 112.97 379.35 108.57 382.38 103.90 383.66 C 103.89 376.96 96.75 374.15 93.57 369.06 Z" />
<path fill="#ffffff" opacity="1.00" d=" M 103.84 371.08 C 103.65 367.62 106.47 364.39 110.00 364.60 C 112.47 365.58 113.54 368.16 114.78 370.30 C 111.27 371.49 107.47 372.19 103.84 371.08 Z" />
<path fill="#ffffff" opacity="1.00" d=" M 89.08 371.03 C 91.03 371.46 92.22 373.17 93.56 374.50 C 95.58 376.80 98.00 378.75 99.81 381.24 C 100.50 383.36 97.76 383.48 96.30 383.48 C 93.53 381.70 91.23 379.20 89.49 376.43 C 88.60 374.83 87.67 372.61 89.08 371.03 Z" />
<path fill="#ffffff" opacity="1.00" d=" M 263.88 375.40 C 265.25 373.10 268.00 371.24 270.75 372.32 C 274.62 374.23 276.16 378.60 278.08 382.18 C 276.73 382.34 275.38 382.50 274.03 382.66 C 270.79 380.05 267.39 377.63 263.88 375.40 Z" />
<path fill="#ffffff" opacity="1.00" d=" M 245.16 379.86 C 245.36 377.07 245.88 371.52 249.97 372.78 C 257.46 375.09 263.99 379.73 270.27 384.32 C 269.11 385.47 267.95 386.63 266.80 387.79 C 259.77 384.69 252.69 381.57 245.16 379.86 Z" />
<path fill="#ffffff" opacity="1.00" d=" M 115.88 379.44 C 116.58 378.47 117.28 377.52 117.98 376.56 C 122.65 377.96 127.25 380.10 130.33 384.03 C 130.30 384.64 130.25 385.86 130.22 386.46 L 129.94 387.11 C 125.39 384.31 120.78 381.58 115.88 379.44 Z" />
<path fill="#ffffff" opacity="1.00" d=" M 110.55 384.16 C 112.18 383.76 113.89 382.73 115.58 383.51 C 120.13 385.05 124.12 387.85 127.91 390.75 C 127.52 391.44 126.75 392.84 126.36 393.53 C 120.41 391.88 114.03 389.66 110.55 384.16 Z" />
<path fill="#ffffff" opacity="1.00" d=" M 242.87 383.67 C 250.01 384.05 256.46 387.47 262.96 390.15 C 264.82 390.74 263.14 392.90 263.10 394.14 C 257.34 392.66 251.40 391.97 245.70 390.31 C 242.79 389.51 242.61 386.14 242.87 383.67 Z" />
<path fill="#ffffff" opacity="1.00" d=" M 275.33 386.44 C 278.90 384.64 283.81 386.84 284.21 390.99 C 284.80 398.18 278.35 405.56 271.00 405.35 C 266.23 404.98 264.53 399.10 266.41 395.28 C 267.87 391.20 271.18 387.78 275.33 386.44 Z" />
<path fill="#ffffff" opacity="1.00" d=" M 244.24 396.83 C 250.22 395.97 256.18 397.40 262.04 398.48 C 261.89 399.52 262.85 401.87 260.99 401.71 C 256.30 402.14 251.40 401.67 247.06 399.76 C 245.69 399.28 244.92 397.99 244.24 396.83 Z" />
<path fill="#ffffff" opacity="1.00" d=" M 102.53 491.63 C 103.12 491.42 104.28 490.99 104.87 490.78 C 105.88 491.74 106.90 492.69 107.94 493.64 C 105.75 494.19 103.95 493.23 102.53 491.63 Z" />
<path fill="#ffffff" opacity="1.00" d=" M 196.10 501.41 C 202.80 499.04 209.55 496.78 216.33 494.63 C 213.26 502.29 203.11 503.29 196.10 501.41 Z" />
<path fill="#ffffff" opacity="1.00" d=" M 111.22 496.26 C 113.66 497.93 116.23 499.41 118.85 500.80 C 117.12 501.24 115.18 502.49 113.45 501.36 C 111.50 500.46 111.70 498.01 111.22 496.26 Z" />
<path fill="#ffffff" opacity="1.00" d=" M 132.35 505.87 C 134.07 506.31 135.80 506.73 137.55 507.11 C 137.23 508.37 136.91 509.63 136.59 510.89 C 134.51 509.81 132.57 508.38 132.35 505.87 Z" />
<path fill="#ffffff" opacity="1.00" d=" M 141.11 507.80 C 145.16 508.50 149.26 508.87 153.35 509.15 C 151.74 513.25 146.79 515.47 142.85 513.12 C 140.71 512.17 141.31 509.66 141.11 507.80 Z" />
<path fill="#ffffff" opacity="1.00" d=" M 157.09 509.22 C 161.11 509.22 165.13 509.06 169.13 508.64 C 168.31 511.32 167.53 514.34 165.03 515.98 C 162.68 517.78 158.77 519.06 156.42 516.60 C 154.57 514.30 156.38 511.57 157.09 509.22 Z" />
</g>
<g id="#bdc1c1fd">
<path fill="#bdc1c1" opacity="1.00" d=" M 107.48 79.05 C 111.53 79.31 115.60 79.21 119.65 78.88 C 93.20 86.18 67.96 101.45 53.09 125.03 C 41.95 142.31 37.03 163.59 39.97 183.98 C 43.21 208.26 56.18 230.47 73.61 247.36 C 75.97 249.66 78.65 251.62 80.87 254.07 C 83.31 256.82 84.03 260.55 84.74 264.04 C 86.57 274.60 86.79 285.37 88.57 295.94 C 89.26 299.75 90.61 303.76 93.82 306.20 C 99.17 310.33 106.50 310.77 112.91 309.49 C 116.57 308.78 119.28 305.80 120.40 302.35 C 124.92 291.07 123.45 278.72 123.16 266.89 C 124.68 266.97 127.13 266.75 127.17 268.94 C 128.83 279.05 127.99 289.49 130.56 299.46 C 131.75 303.61 133.40 308.26 137.46 310.40 C 141.86 312.61 146.99 312.89 151.81 312.42 C 155.40 312.03 159.27 310.38 160.80 306.88 C 162.54 302.81 162.56 298.28 162.55 293.94 C 162.42 286.19 162.62 278.44 163.03 270.71 C 164.37 271.15 166.78 271.07 166.75 273.06 C 167.49 283.69 164.68 294.93 168.90 305.11 C 171.44 311.47 179.24 311.65 185.03 312.26 C 190.56 312.61 198.18 312.77 200.62 306.59 C 204.76 296.64 202.77 285.55 203.09 275.09 C 203.34 274.86 203.83 274.40 204.07 274.17 C 212.66 273.59 222.40 274.20 229.50 268.42 C 232.20 266.26 230.50 262.71 230.09 259.93 C 230.88 259.74 232.47 259.36 233.27 259.18 C 234.58 262.15 235.94 265.78 233.97 268.80 C 230.61 274.21 223.96 275.67 218.23 277.16 C 218.21 279.74 218.18 282.32 218.16 284.90 C 235.27 280.35 251.70 272.67 265.41 261.37 C 268.58 258.69 271.63 255.86 274.76 253.14 C 273.51 256.40 272.26 259.75 270.00 262.47 C 255.03 275.30 236.86 284.08 217.78 288.81 C 216.47 296.34 214.22 304.17 208.67 309.73 C 205.45 313.23 200.88 315.40 196.11 315.60 C 187.24 316.16 177.87 316.37 169.66 312.43 C 167.32 313.84 164.88 315.40 162.06 315.47 C 153.85 315.65 145.29 317.61 137.38 314.49 C 134.17 313.43 131.91 310.83 129.89 308.26 C 124.50 311.83 117.86 312.32 111.71 313.67 C 110.19 313.76 108.67 313.78 107.16 313.83 C 101.55 313.81 95.67 312.59 91.27 308.92 C 87.59 306.08 85.80 301.52 85.05 297.06 C 83.21 286.44 82.98 275.62 81.19 265.00 C 80.50 261.97 80.09 258.52 77.68 256.30 C 74.34 252.97 70.75 249.88 67.52 246.44 C 50.92 229.24 38.89 207.04 36.18 183.10 C 33.43 161.29 39.05 138.61 51.56 120.56 C 65.02 101.12 85.19 86.63 107.48 79.05 Z" />
<path fill="#bdc1c1" opacity="1.00" d=" M 90.30 111.65 C 94.08 111.03 97.84 110.14 101.71 110.45 L 101.37 111.84 C 101.93 111.68 103.06 111.36 103.62 111.20 L 103.23 112.81 L 104.51 112.26 C 104.85 113.40 105.18 114.55 105.52 115.70 L 106.53 115.27 C 106.50 117.75 106.51 120.22 106.55 122.70 L 105.22 122.39 C 105.34 122.97 105.59 124.13 105.72 124.71 C 105.14 124.60 103.98 124.38 103.40 124.27 L 103.71 125.57 C 97.91 125.84 91.96 124.72 86.33 126.59 L 86.88 127.76 L 85.45 127.14 L 85.68 128.65 L 84.19 128.30 L 84.74 129.71 L 83.19 129.27 L 83.61 130.89 C 83.13 130.74 82.18 130.43 81.71 130.27 C 81.26 131.43 80.81 132.60 80.36 133.76 C 79.88 133.60 78.92 133.29 78.44 133.14 L 78.68 134.54 C 77.55 134.57 76.43 134.62 75.30 134.66 L 75.68 133.35 L 74.36 133.70 C 74.42 131.23 74.46 128.77 74.48 126.30 L 75.91 126.55 C 75.72 126.03 75.34 124.97 75.14 124.45 L 76.81 124.59 C 76.68 124.03 76.42 122.91 76.29 122.35 C 76.89 122.42 78.08 122.56 78.68 122.63 C 78.56 122.06 78.33 120.92 78.21 120.35 L 79.62 120.82 L 79.34 119.32 L 80.85 119.65 L 80.32 118.53 C 81.45 118.13 82.58 117.75 83.70 117.36 C 83.61 116.82 83.44 115.74 83.35 115.20 C 83.90 115.38 85.01 115.73 85.56 115.91 L 85.32 114.60 C 86.42 114.24 87.51 113.88 88.61 113.51 L 88.39 112.23 C 88.96 112.38 90.10 112.68 90.67 112.83 L 90.30 111.65 Z" />
<path fill="#bdc1c1" opacity="1.00" d=" M 180.30 112.47 C 183.77 112.47 187.23 112.48 190.70 112.49 L 190.47 113.95 C 190.99 113.71 192.03 113.23 192.55 112.99 L 192.36 114.53 C 193.19 114.49 194.85 114.43 195.68 114.40 L 195.44 115.87 C 195.96 115.69 197.01 115.34 197.53 115.17 L 197.49 116.88 C 198.03 116.69 199.11 116.31 199.65 116.12 L 199.17 117.73 L 200.72 117.28 L 200.42 118.84 C 200.97 118.69 202.07 118.40 202.62 118.26 C 202.56 118.85 202.43 120.05 202.37 120.64 C 202.96 120.58 204.14 120.45 204.73 120.39 C 204.59 120.93 204.30 122.02 204.16 122.56 L 205.47 122.29 C 205.82 123.42 206.18 124.56 206.54 125.70 L 207.37 125.30 C 208.33 128.69 208.80 132.20 208.55 135.73 L 207.10 135.45 C 207.30 136.00 207.70 137.09 207.89 137.64 L 206.22 137.17 L 206.74 138.53 C 204.93 138.53 203.12 138.54 201.32 138.56 L 201.80 137.26 L 200.27 137.70 L 200.67 136.17 L 199.18 136.65 C 199.34 136.10 199.67 135.00 199.84 134.45 L 198.17 134.57 C 198.34 134.05 198.68 133.00 198.85 132.47 L 197.19 132.56 C 197.35 132.03 197.66 130.98 197.81 130.45 L 196.25 130.61 C 196.34 130.03 196.54 128.89 196.63 128.31 C 196.14 128.41 195.16 128.60 194.67 128.70 C 194.24 127.67 193.82 126.65 193.40 125.62 C 191.72 125.15 190.04 124.66 188.32 124.37 L 188.69 123.40 C 187.23 123.46 185.76 123.51 184.30 123.57 L 184.69 122.35 C 183.85 122.43 182.16 122.58 181.32 122.65 L 181.65 121.41 C 180.78 121.44 179.06 121.51 178.19 121.55 C 178.37 121.02 178.72 119.95 178.90 119.41 L 177.49 119.67 C 177.47 118.84 177.42 117.17 177.40 116.34 L 178.58 116.63 C 178.55 115.78 178.49 114.07 178.46 113.22 C 179.00 113.40 180.07 113.75 180.61 113.93 L 180.30 112.47 Z" />
<path fill="#bdc1c1" opacity="1.00" d=" M 166.15 129.15 C 173.34 127.54 181.07 129.61 186.75 134.23 C 196.29 141.80 201.33 153.67 203.39 165.41 C 205.81 180.32 204.05 196.30 196.58 209.60 C 191.91 217.67 184.47 225.01 174.96 226.61 C 166.16 228.10 157.31 223.94 151.53 217.43 C 142.09 207.10 138.35 192.78 137.94 179.07 C 137.87 165.96 140.79 152.35 148.61 141.60 C 152.93 135.77 158.90 130.72 166.15 129.15 M 158.20 184.09 C 158.90 198.34 163.52 213.56 175.05 222.78 C 185.33 220.57 192.26 211.41 196.09 202.18 C 202.83 185.51 202.45 165.81 194.40 149.66 C 190.49 141.57 183.64 134.62 174.75 132.36 C 162.26 146.28 157.39 165.73 158.20 184.09 Z" />
<path fill="#bdc1c1" opacity="1.00" d=" M 92.24 135.35 C 96.53 133.98 101.38 135.31 104.57 138.45 C 111.46 144.85 114.03 154.43 115.41 163.42 C 117.09 176.74 115.96 190.82 110.10 203.04 C 107.23 208.64 102.68 214.59 95.97 215.32 C 89.76 216.00 84.62 211.33 81.65 206.36 C 76.06 196.96 74.50 185.74 74.54 174.97 C 74.81 164.12 76.70 152.85 82.62 143.56 C 84.96 140.01 88.10 136.71 92.24 135.35 M 100.34 139.82 C 91.42 149.09 89.53 162.73 89.15 175.06 C 89.23 187.37 90.82 200.92 99.31 210.52 C 103.33 207.64 106.09 203.40 107.94 198.87 C 113.09 186.04 113.75 171.57 110.72 158.14 C 108.95 151.35 106.37 143.99 100.34 139.82 Z" />
<path fill="#bdc1c1" opacity="1.00" d=" M 229.15 185.94 C 230.99 166.85 239.98 148.81 253.25 135.08 C 254.05 136.19 254.86 137.30 255.64 138.44 C 247.14 146.61 241.11 157.11 237.04 168.10 C 232.54 180.65 230.90 194.60 234.51 207.58 C 236.92 216.25 242.08 224.49 249.97 229.13 C 253.50 231.40 257.78 231.96 261.46 233.93 C 262.36 237.13 259.00 236.59 256.99 236.14 C 247.89 233.92 240.10 227.58 235.43 219.54 C 229.54 209.48 228.07 197.39 229.15 185.94 Z" />
<path fill="#bdc1c1" opacity="1.00" d=" M 345.62 195.46 C 346.65 195.46 348.72 195.47 349.75 195.47 L 349.41 196.91 C 349.95 196.73 351.04 196.37 351.59 196.19 L 351.56 197.77 C 352.06 197.63 353.05 197.35 353.55 197.21 L 353.62 198.37 C 355.32 198.83 357.01 199.39 358.78 199.58 L 358.11 200.88 L 359.20 200.39 C 359.93 201.39 360.96 201.78 362.31 201.54 C 362.23 203.58 364.11 203.41 365.61 203.56 L 365.28 204.83 L 366.85 204.39 L 366.50 205.89 C 366.94 205.72 367.82 205.39 368.26 205.22 C 368.16 207.18 369.79 207.43 371.24 207.67 C 371.74 209.52 373.70 210.01 375.23 210.67 C 375.87 212.56 377.62 213.85 379.67 213.54 C 379.60 214.08 379.45 215.16 379.38 215.71 C 379.87 215.60 380.84 215.39 381.33 215.28 C 382.25 218.83 386.40 220.32 388.01 223.60 C 388.36 223.52 389.06 223.37 389.42 223.29 C 389.06 225.57 391.24 226.73 392.09 228.57 C 392.41 228.50 393.06 228.37 393.38 228.30 C 393.53 229.70 393.50 231.54 395.33 231.78 C 396.06 233.25 396.43 235.34 398.34 235.72 C 398.54 237.31 398.76 238.98 400.83 238.67 C 400.63 239.15 400.21 240.11 400.00 240.59 L 401.81 240.34 C 401.65 240.88 401.32 241.95 401.16 242.48 L 402.83 242.42 L 402.22 244.31 C 402.61 244.33 403.39 244.36 403.78 244.38 L 403.09 245.89 L 404.43 245.22 C 404.51 247.77 406.01 249.93 406.78 252.30 L 407.77 252.46 C 407.65 252.95 407.40 253.94 407.28 254.44 L 408.83 254.42 C 408.65 254.96 408.28 256.03 408.10 256.56 L 409.34 256.26 C 409.95 260.07 411.67 263.57 412.75 267.26 C 413.83 270.39 414.19 273.73 415.41 276.82 C 415.44 278.08 415.46 279.35 415.47 280.63 L 416.56 280.28 C 416.48 282.74 416.48 285.21 416.49 287.68 L 417.57 287.24 C 417.40 295.74 417.39 304.26 417.57 312.76 L 416.46 312.32 C 416.48 314.44 416.50 316.55 416.56 318.68 L 415.48 318.48 C 415.51 320.21 415.53 321.95 415.59 323.69 L 414.51 323.45 C 414.49 324.67 414.46 325.89 414.43 327.12 C 413.07 330.18 411.95 333.36 411.34 336.65 L 410.63 336.57 C 410.18 338.26 409.73 339.95 409.38 341.67 L 408.19 341.55 C 408.34 342.03 408.65 343.01 408.80 343.49 C 408.40 343.56 407.59 343.69 407.18 343.75 L 407.72 345.11 C 407.44 345.33 406.88 345.76 406.59 345.98 L 406.53 347.52 C 406.19 347.58 405.51 347.69 405.17 347.74 L 405.87 349.58 L 404.19 349.54 C 404.34 350.06 404.64 351.09 404.79 351.61 L 403.09 351.35 C 403.28 351.85 403.64 352.84 403.82 353.34 C 401.69 353.07 401.54 354.77 401.37 356.32 C 399.54 356.31 399.59 357.97 399.38 359.30 C 397.33 359.79 396.25 361.85 396.36 363.85 L 395.33 363.04 L 395.28 365.19 L 393.67 369.18 C 392.31 361.95 395.92 355.17 395.57 347.98 C 395.33 343.07 396.20 337.97 394.61 333.22 C 394.54 331.60 394.50 329.99 394.47 328.38 L 393.51 328.74 C 393.95 324.52 391.76 320.72 391.33 316.60 L 390.38 316.61 C 390.43 315.86 390.52 314.35 390.56 313.59 L 389.61 313.61 C 389.27 311.90 388.82 310.20 388.39 308.51 L 387.16 308.57 C 387.34 308.05 387.71 307.00 387.89 306.48 L 386.19 306.66 C 386.36 306.09 386.72 304.95 386.90 304.38 L 385.71 304.67 C 385.48 303.24 384.91 301.92 384.30 300.63 C 384.06 300.07 383.58 298.94 383.34 298.38 L 382.16 298.65 C 382.33 298.12 382.67 297.05 382.85 296.52 L 381.37 296.82 L 381.86 295.24 L 380.54 295.64 C 380.33 294.18 380.75 291.97 378.57 292.41 C 378.43 290.94 378.65 289.06 376.59 289.38 C 376.54 287.70 376.37 285.99 374.16 286.30 C 374.35 285.86 374.72 284.98 374.90 284.53 L 373.77 284.65 C 373.10 283.11 372.25 281.25 370.27 281.31 C 370.39 280.87 370.64 280.00 370.77 279.56 L 369.35 279.68 L 369.60 278.35 L 368.71 278.55 C 366.01 274.55 362.42 270.87 358.38 268.23 L 358.55 267.06 C 358.02 267.26 356.95 267.65 356.42 267.85 C 356.45 267.21 356.52 265.94 356.56 265.31 C 356.08 265.41 355.13 265.60 354.65 265.70 C 354.68 264.14 353.90 263.35 352.31 263.34 L 352.50 262.07 C 352.03 262.26 351.10 262.65 350.64 262.84 C 350.76 261.22 350.01 260.39 348.36 260.34 L 348.46 259.17 C 348.02 259.31 347.15 259.61 346.72 259.76 C 346.93 257.48 344.75 257.49 343.21 257.45 L 343.89 256.16 L 342.39 256.78 C 342.37 256.37 342.33 255.55 342.31 255.14 L 340.39 255.93 L 340.60 254.71 C 338.54 253.79 336.52 252.80 334.55 251.72 C 332.56 250.70 330.55 249.59 328.29 249.33 L 328.51 248.17 C 328.12 248.27 327.35 248.47 326.96 248.57 C 325.01 247.15 322.61 246.64 320.26 246.44 L 320.66 245.32 L 319.41 245.74 C 317.68 240.71 318.73 235.43 319.61 230.37 L 320.60 230.41 C 320.54 229.66 320.42 228.15 320.36 227.40 L 321.39 227.47 C 321.83 225.74 322.30 224.02 322.64 222.27 L 323.96 222.52 C 323.74 221.98 323.29 220.89 323.07 220.35 L 324.47 220.71 C 324.84 219.36 325.27 218.04 325.65 216.70 C 327.40 216.66 327.37 214.93 327.66 213.69 C 329.46 213.64 329.35 211.92 329.61 210.62 C 330.85 210.60 331.50 209.95 331.58 208.67 C 331.84 208.33 332.36 207.63 332.62 207.29 L 333.79 207.43 C 333.66 206.98 333.39 206.08 333.26 205.64 C 335.21 205.81 336.29 204.05 336.71 202.40 C 337.18 202.42 338.14 202.45 338.62 202.47 C 338.55 201.90 338.42 200.76 338.35 200.19 C 338.88 200.36 339.94 200.69 340.48 200.85 L 340.34 199.65 C 341.71 199.61 342.49 198.93 342.66 197.59 C 344.09 197.41 345.91 197.50 345.62 195.46 M 348.09 215.02 C 344.90 216.11 342.85 218.91 341.39 221.80 C 341.39 224.57 341.46 227.35 341.60 230.12 C 336.51 232.09 335.06 238.39 337.03 243.00 C 338.75 246.17 342.40 245.75 345.45 245.50 C 345.58 247.21 344.96 249.24 346.19 250.69 C 347.98 254.09 352.35 252.12 355.36 252.38 C 355.09 254.47 355.90 256.24 357.41 257.63 C 359.49 257.60 361.57 257.59 363.66 257.59 C 366.48 254.93 369.73 251.91 368.54 247.57 C 369.99 247.48 371.57 247.66 372.89 246.87 C 376.72 246.17 379.37 242.71 379.90 238.99 C 380.54 236.33 379.50 233.68 378.96 231.11 C 375.93 225.11 370.94 219.30 364.38 217.24 L 364.45 216.14 C 364.07 216.25 363.29 216.45 362.91 216.55 C 358.69 213.70 352.89 213.98 348.09 215.02 M 391.46 240.65 C 394.46 241.37 395.26 238.75 394.29 236.46 C 391.26 235.72 391.11 238.52 391.46 240.65 M 394.43 245.90 C 395.50 245.46 396.80 245.34 397.60 244.41 C 397.94 243.03 396.85 241.96 396.20 240.89 C 393.90 241.96 393.13 243.66 394.43 245.90 M 396.16 247.76 C 402.32 262.46 406.86 278.00 407.76 293.99 C 408.97 303.42 408.00 312.98 406.40 322.31 C 405.59 327.55 403.11 332.33 402.15 337.52 C 403.28 337.58 404.42 337.64 405.57 337.70 C 409.95 327.41 411.89 316.16 411.71 304.99 C 412.22 285.66 408.18 266.23 400.42 248.55 C 399.79 246.35 397.68 246.40 396.16 247.76 M 399.35 339.35 C 399.32 340.48 399.29 341.61 399.27 342.74 C 400.40 342.70 401.53 342.65 402.66 342.62 C 402.64 341.53 402.63 340.45 402.62 339.37 C 401.53 339.36 400.44 339.35 399.35 339.35 Z" />
<path fill="#bdc1c1" opacity="1.00" d=" M 119.84 228.79 C 122.20 226.06 125.15 223.21 129.07 223.45 C 136.60 223.46 141.08 232.33 139.15 238.97 C 137.17 245.62 131.65 250.25 127.76 255.76 C 126.71 257.13 125.15 259.61 123.13 258.22 C 116.90 254.50 110.27 251.04 105.29 245.65 C 100.22 240.20 101.03 229.57 108.26 226.38 C 112.26 224.46 116.53 226.46 119.84 228.79 M 132.46 229.35 C 130.95 231.09 130.18 233.90 127.61 234.35 C 125.07 234.82 122.49 235.13 119.90 235.12 C 118.25 233.47 117.06 231.32 114.89 230.26 C 114.25 233.80 114.29 237.58 116.11 240.80 C 118.45 245.17 121.20 249.76 125.66 252.26 C 128.51 248.89 131.49 245.60 133.83 241.84 C 135.74 239.02 136.69 235.27 135.14 232.07 C 134.48 230.96 134.26 228.65 132.46 229.35 Z" />
<path fill="#bdc1c1" opacity="1.00" d=" M 265.16 234.12 C 267.50 233.06 269.08 236.81 266.73 237.72 C 264.43 238.50 263.08 235.25 265.16 234.12 Z" />
<path fill="#bdc1c1" opacity="1.00" d=" M 272.26 234.35 C 274.47 233.33 276.28 236.05 274.55 237.75 C 272.30 238.78 270.26 236.04 272.26 234.35 Z" />
<path fill="#bdc1c1" opacity="1.00" d=" M 90.46 336.04 C 90.93 330.19 100.43 326.61 103.25 332.75 C 106.89 341.24 105.63 350.83 107.46 359.74 C 113.79 360.82 118.73 366.56 118.37 373.08 C 120.27 373.60 122.19 374.08 124.01 374.84 C 125.08 375.34 126.11 375.89 127.12 376.50 C 129.01 377.78 130.75 379.26 132.48 380.75 C 131.82 382.69 131.06 384.59 130.22 386.46 C 130.25 385.86 130.30 384.64 130.33 384.03 C 127.25 380.10 122.65 377.96 117.98 376.56 C 117.28 377.52 116.58 378.47 115.88 379.44 C 120.78 381.58 125.39 384.31 129.94 387.11 C 129.29 388.33 128.59 389.53 127.91 390.75 C 124.12 387.85 120.13 385.05 115.58 383.51 C 113.89 382.73 112.18 383.76 110.55 384.16 C 114.03 389.66 120.41 391.88 126.36 393.53 C 125.78 394.60 125.22 395.68 124.62 396.74 C 121.90 395.96 119.18 395.20 116.49 394.35 C 115.53 393.81 114.63 393.19 113.75 392.55 C 111.41 390.77 109.35 388.66 107.43 386.44 C 102.32 387.49 95.79 388.48 91.82 384.22 C 88.64 381.19 85.33 377.61 85.38 372.92 C 84.96 370.50 86.69 368.66 88.11 366.98 C 84.08 362.30 79.78 357.82 76.13 352.83 C 73.43 349.20 72.45 344.36 73.45 339.96 C 74.92 336.24 80.83 335.72 83.09 338.99 C 87.15 343.97 90.36 349.58 93.83 354.98 C 92.49 348.72 90.16 342.52 90.46 336.04 M 94.08 338.01 C 94.78 345.73 97.17 353.21 99.39 360.60 C 100.83 360.22 102.27 359.84 103.72 359.46 C 102.63 352.49 102.67 345.40 101.35 338.47 C 100.85 336.59 100.44 334.33 98.74 333.16 C 96.20 332.96 93.43 335.29 94.08 338.01 M 76.66 340.74 C 76.55 344.01 76.82 347.48 78.82 350.21 C 82.65 355.65 87.23 360.51 91.73 365.39 C 92.84 364.46 93.94 363.53 95.05 362.61 C 89.98 355.99 85.74 348.79 80.88 342.04 C 80.02 340.32 78.27 340.43 76.66 340.74 M 93.57 369.06 C 96.75 374.15 103.89 376.96 103.90 383.66 C 108.57 382.38 112.97 379.35 114.26 374.46 C 110.14 374.96 104.95 376.74 101.60 373.36 C 98.87 370.29 101.01 366.10 102.78 363.17 C 99.21 364.22 95.83 366.01 93.57 369.06 M 103.84 371.08 C 107.47 372.19 111.27 371.49 114.78 370.30 C 113.54 368.16 112.47 365.58 110.00 364.60 C 106.47 364.39 103.65 367.62 103.84 371.08 M 89.08 371.03 C 87.67 372.61 88.60 374.83 89.49 376.43 C 91.23 379.20 93.53 381.70 96.30 383.48 C 97.76 383.48 100.50 383.36 99.81 381.24 C 98.00 378.75 95.58 376.80 93.56 374.50 C 92.22 373.17 91.03 371.46 89.08 371.03 Z" />
<path fill="#bdc1c1" opacity="1.00" d=" M 196.44 364.96 C 197.48 357.86 204.82 354.04 211.17 352.62 C 218.51 351.80 226.58 351.81 232.96 356.07 C 236.51 358.56 240.06 362.33 239.65 367.01 C 239.83 370.44 237.47 373.11 235.40 375.55 C 234.77 378.36 236.99 381.16 236.01 384.00 C 235.68 386.86 233.73 389.63 230.92 390.46 C 228.32 391.10 226.20 389.35 224.18 388.04 C 222.44 389.66 220.71 392.10 217.98 391.53 C 215.79 391.62 214.59 389.47 213.14 388.21 C 209.47 390.35 203.80 390.82 201.38 386.63 C 198.58 383.30 200.05 378.97 200.91 375.22 C 198.18 372.54 195.65 369.02 196.44 364.96 M 211.49 356.67 C 206.70 357.81 201.12 360.53 200.29 365.94 C 200.16 370.15 204.54 372.28 206.29 375.67 C 204.21 378.14 203.41 381.55 204.57 384.63 C 205.79 386.12 207.91 386.02 209.62 385.66 C 212.23 383.31 210.86 378.19 215.15 377.59 C 218.21 379.24 216.44 382.37 216.29 385.00 C 216.73 386.29 217.93 387.11 218.83 388.07 C 222.63 385.56 218.72 379.42 222.98 377.68 C 226.37 377.14 225.84 381.37 226.65 383.49 C 226.98 385.34 230.00 388.00 231.33 385.54 C 232.99 382.11 230.72 378.50 230.58 375.01 C 232.04 372.47 234.99 370.87 235.62 367.84 C 236.25 364.79 234.26 361.81 231.82 360.15 C 226.01 355.93 218.35 355.44 211.49 356.67 Z" />
<path fill="#bdc1c1" opacity="1.00" d=" M 209.95 359.75 C 214.07 357.71 219.06 361.61 218.31 366.08 C 218.38 371.04 211.55 375.01 207.80 371.13 C 204.14 367.93 205.66 361.57 209.95 359.75 Z" />
<path fill="#bdc1c1" opacity="1.00" d=" M 224.11 361.09 C 228.32 359.66 232.79 363.66 232.57 367.94 C 232.90 373.09 225.87 376.47 222.08 372.97 C 217.66 370.06 218.91 362.36 224.11 361.09 Z" />
<path fill="#bdc1c1" opacity="1.00" d=" M 263.29 369.86 C 265.87 368.69 268.90 366.71 271.73 368.31 C 277.68 370.65 280.01 377.04 282.49 382.39 C 283.14 383.04 284.44 384.35 285.08 385.00 C 287.22 387.85 287.49 391.54 287.29 394.97 C 286.96 400.22 286.94 405.48 286.60 410.73 C 280.87 410.18 275.33 408.36 269.51 408.53 C 268.17 408.19 266.83 407.78 265.50 407.41 C 264.88 406.74 264.27 406.08 263.65 405.43 C 256.72 405.73 248.94 406.38 243.06 401.97 C 242.21 401.01 241.37 400.05 240.55 399.08 C 241.13 397.16 241.78 395.24 242.88 393.54 C 239.04 390.29 237.67 384.16 241.41 380.30 C 241.93 376.55 242.07 371.91 245.69 369.70 C 249.89 367.83 254.18 370.45 258.04 371.95 C 258.94 372.33 259.85 372.70 260.76 373.08 C 261.60 372.00 262.45 370.93 263.29 369.86 M 263.88 375.40 C 267.39 377.63 270.79 380.05 274.03 382.66 C 275.38 382.50 276.73 382.34 278.08 382.18 C 276.16 378.60 274.62 374.23 270.75 372.32 C 268.00 371.24 265.25 373.10 263.88 375.40 M 245.16 379.86 C 252.69 381.57 259.77 384.69 266.80 387.79 C 267.95 386.63 269.11 385.47 270.27 384.32 C 263.99 379.73 257.46 375.09 249.97 372.78 C 245.88 371.52 245.36 377.07 245.16 379.86 M 242.87 383.67 C 242.61 386.14 242.79 389.51 245.70 390.31 C 251.40 391.97 257.34 392.66 263.10 394.14 C 263.14 392.90 264.82 390.74 262.96 390.15 C 256.46 387.47 250.01 384.05 242.87 383.67 M 275.33 386.44 C 271.18 387.78 267.87 391.20 266.41 395.28 C 264.53 399.10 266.23 404.98 271.00 405.35 C 278.35 405.56 284.80 398.18 284.21 390.99 C 283.81 386.84 278.90 384.64 275.33 386.44 M 244.24 396.83 C 244.92 397.99 245.69 399.28 247.06 399.76 C 251.40 401.67 256.30 402.14 260.99 401.71 C 262.85 401.87 261.89 399.52 262.04 398.48 C 256.18 397.40 250.22 395.97 244.24 396.83 Z" />
<path fill="#bdc1c1" opacity="1.00" d=" M 93.91 485.09 C 93.25 482.40 95.51 480.41 97.34 478.90 L 97.85 479.94 C 99.68 483.84 101.94 487.58 104.87 490.78 C 104.28 490.99 103.12 491.42 102.53 491.63 C 103.95 493.23 105.75 494.19 107.94 493.64 C 109.00 494.55 110.10 495.40 111.22 496.26 C 111.70 498.01 111.50 500.46 113.45 501.36 C 115.18 502.49 117.12 501.24 118.85 500.80 C 119.97 501.33 121.11 501.82 122.27 502.30 C 119.35 506.10 113.13 506.77 109.79 503.18 C 108.18 501.83 108.00 499.64 107.51 497.74 C 103.22 498.28 98.90 495.09 99.48 490.51 C 97.08 489.47 94.28 487.98 93.91 485.09 Z" />
<path fill="#bdc1c1" opacity="1.00" d=" M 216.33 494.63 C 217.86 494.13 219.39 493.63 220.92 493.15 C 220.07 499.23 214.74 503.63 209.01 505.02 C 203.26 506.40 197.10 506.17 191.43 504.52 L 191.57 503.78 L 191.95 503.24 C 193.30 502.57 194.68 501.95 196.10 501.41 C 203.11 503.29 213.26 502.29 216.33 494.63 Z" />
<path fill="#bdc1c1" opacity="1.00" d=" M 129.22 504.85 C 130.26 505.19 131.30 505.55 132.35 505.87 C 132.57 508.38 134.51 509.81 136.59 510.89 C 136.91 509.63 137.23 508.37 137.55 507.11 C 138.73 507.35 139.92 507.58 141.11 507.80 C 141.31 509.66 140.71 512.17 142.85 513.12 C 146.79 515.47 151.74 513.25 153.35 509.15 C 154.59 509.19 155.84 509.21 157.09 509.22 C 156.38 511.57 154.57 514.30 156.42 516.60 C 158.77 519.06 162.68 517.78 165.03 515.98 C 167.53 514.34 168.31 511.32 169.13 508.64 C 169.98 508.52 171.68 508.27 172.53 508.15 C 172.97 515.72 165.56 522.66 158.04 521.48 C 155.19 521.20 153.30 518.83 152.02 516.50 C 147.62 518.45 142.09 518.16 138.64 514.52 C 133.56 514.55 127.15 510.75 129.22 504.85 Z" />
</g>
<g id="#480c09ff">
<path fill="#480c09" opacity="1.00" d=" M 92.15 108.01 C 95.67 107.04 99.41 107.07 102.95 107.90 C 105.24 109.01 107.00 110.85 108.49 112.88 C 109.90 116.24 109.82 119.91 109.66 123.48 L 108.42 123.53 C 108.50 123.93 108.68 124.73 108.76 125.13 C 107.02 127.37 104.43 128.93 101.51 128.78 L 101.41 129.34 C 100.42 129.35 98.44 129.38 97.45 129.40 L 97.56 128.63 C 95.28 128.69 93.00 128.68 90.72 128.65 C 86.06 130.67 83.49 135.64 78.84 137.61 C 74.86 138.96 70.43 135.86 71.22 131.52 L 69.61 130.99 L 71.29 130.48 C 71.40 128.63 70.98 126.49 72.34 124.98 C 72.35 124.73 72.38 124.23 72.40 123.98 C 73.23 122.86 73.94 121.66 74.73 120.51 L 75.13 120.36 C 76.69 117.91 78.90 115.98 81.13 114.17 C 83.28 112.49 85.54 110.96 87.92 109.63 C 89.32 109.08 90.75 108.59 92.15 108.01 M 90.30 111.65 L 90.67 112.83 C 90.10 112.68 88.96 112.38 88.39 112.23 L 88.61 113.51 C 87.51 113.88 86.42 114.24 85.32 114.60 L 85.56 115.91 C 85.01 115.73 83.90 115.38 83.35 115.20 C 83.44 115.74 83.61 116.82 83.70 117.36 C 82.58 117.75 81.45 118.13 80.32 118.53 L 80.85 119.65 L 79.34 119.32 L 79.62 120.82 L 78.21 120.35 C 78.33 120.92 78.56 122.06 78.68 122.63 C 78.08 122.56 76.89 122.42 76.29 122.35 C 76.42 122.91 76.68 124.03 76.81 124.59 L 75.14 124.45 C 75.34 124.97 75.72 126.03 75.91 126.55 L 74.48 126.30 C 74.46 128.77 74.42 131.23 74.36 133.70 L 75.68 133.35 L 75.30 134.66 C 76.43 134.62 77.55 134.57 78.68 134.54 L 78.44 133.14 C 78.92 133.29 79.88 133.60 80.36 133.76 C 80.81 132.60 81.26 131.43 81.71 130.27 C 82.18 130.43 83.13 130.74 83.61 130.89 L 83.19 129.27 L 84.74 129.71 L 84.19 128.30 L 85.68 128.65 L 85.45 127.14 L 86.88 127.76 L 86.33 126.59 C 91.96 124.72 97.91 125.84 103.71 125.57 L 103.40 124.27 C 103.98 124.38 105.14 124.60 105.72 124.71 C 105.59 124.13 105.34 122.97 105.22 122.39 L 106.55 122.70 C 106.51 120.22 106.50 117.75 106.53 115.27 L 105.52 115.70 C 105.18 114.55 104.85 113.40 104.51 112.26 L 103.23 112.81 L 103.62 111.20 C 103.06 111.36 101.93 111.68 101.37 111.84 L 101.71 110.45 C 97.84 110.14 94.08 111.03 90.30 111.65 Z" />
<path fill="#480c09" opacity="1.00" d=" M 179.01 109.94 C 183.06 108.79 187.31 109.35 191.45 109.53 L 191.50 110.19 C 192.65 110.43 193.79 110.69 194.93 110.98 C 196.94 111.99 198.97 112.96 200.91 114.12 C 204.29 116.53 207.12 119.62 209.57 122.96 C 209.59 123.24 209.65 123.79 209.68 124.07 C 212.79 129.25 213.00 136.99 207.97 141.09 C 205.41 141.85 202.56 142.13 200.03 141.08 C 198.78 139.77 197.53 138.44 196.34 137.07 C 196.39 136.69 196.49 135.92 196.54 135.53 L 195.15 135.34 C 195.28 134.89 195.52 134.00 195.65 133.55 L 194.70 133.50 C 193.91 132.17 193.09 130.85 192.28 129.53 L 191.37 129.58 L 191.46 128.61 C 190.18 128.18 188.89 127.76 187.60 127.34 L 187.54 126.75 C 186.05 126.59 184.58 126.36 183.14 126.01 C 181.40 125.48 179.67 124.90 177.95 124.33 C 176.99 123.16 175.90 122.11 174.93 120.95 C 173.37 116.72 175.45 112.37 179.01 109.94 M 180.30 112.47 L 180.61 113.93 C 180.07 113.75 179.00 113.40 178.46 113.22 C 178.49 114.07 178.55 115.78 178.58 116.63 L 177.40 116.34 C 177.42 117.17 177.47 118.84 177.49 119.67 L 178.90 119.41 C 178.72 119.95 178.37 121.02 178.19 121.55 C 179.06 121.51 180.78 121.44 181.65 121.41 L 181.32 122.65 C 182.16 122.58 183.85 122.43 184.69 122.35 L 184.30 123.57 C 185.76 123.51 187.23 123.46 188.69 123.40 L 188.32 124.37 C 190.04 124.66 191.72 125.15 193.40 125.62 C 193.82 126.65 194.24 127.67 194.67 128.70 C 195.16 128.60 196.14 128.41 196.63 128.31 C 196.54 128.89 196.34 130.03 196.25 130.61 L 197.81 130.45 C 197.66 130.98 197.35 132.03 197.19 132.56 L 198.85 132.47 C 198.68 133.00 198.34 134.05 198.17 134.57 L 199.84 134.45 C 199.67 135.00 199.34 136.10 199.18 136.65 L 200.67 136.17 L 200.27 137.70 L 201.80 137.26 L 201.32 138.56 C 203.12 138.54 204.93 138.53 206.74 138.53 L 206.22 137.17 L 207.89 137.64 C 207.70 137.09 207.30 136.00 207.10 135.45 L 208.55 135.73 C 208.80 132.20 208.33 128.69 207.37 125.30 L 206.54 125.70 C 206.18 124.56 205.82 123.42 205.47 122.29 L 204.16 122.56 C 204.30 122.02 204.59 120.93 204.73 120.39 C 204.14 120.45 202.96 120.58 202.37 120.64 C 202.43 120.05 202.56 118.85 202.62 118.26 C 202.07 118.40 200.97 118.69 200.42 118.84 L 200.72 117.28 L 199.17 117.73 L 199.65 116.12 C 199.11 116.31 198.03 116.69 197.49 116.88 L 197.53 115.17 C 197.01 115.34 195.96 115.69 195.44 115.87 L 195.68 114.40 C 194.85 114.43 193.19 114.49 192.36 114.53 L 192.55 112.99 C 192.03 113.23 190.99 113.71 190.47 113.95 L 190.70 112.49 C 187.23 112.48 183.77 112.47 180.30 112.47 Z" />
<path fill="#480c09" opacity="1.00" d=" M 158.20 184.09 C 157.39 165.73 162.26 146.28 174.75 132.36 C 183.64 134.62 190.49 141.57 194.40 149.66 C 202.45 165.81 202.83 185.51 196.09 202.18 C 192.26 211.41 185.33 220.57 175.05 222.78 C 163.52 213.56 158.90 198.34 158.20 184.09 Z" />
<path fill="#480c09" opacity="1.00" d=" M 100.34 139.82 C 106.37 143.99 108.95 151.35 110.72 158.14 C 113.75 171.57 113.09 186.04 107.94 198.87 C 106.09 203.40 103.33 207.64 99.31 210.52 C 90.82 200.92 89.23 187.37 89.15 175.06 C 89.53 162.73 91.42 149.09 100.34 139.82 Z" />
<path fill="#480c09" opacity="1.00" d=" M 370.05 192.02 C 371.00 190.87 372.65 191.10 373.92 191.51 C 382.09 193.82 389.39 199.40 393.32 206.99 C 391.65 209.16 390.04 211.37 388.63 213.72 C 387.82 215.05 387.04 216.41 386.28 217.77 C 397.00 227.89 405.06 240.65 410.94 254.11 C 411.98 256.75 413.03 259.39 413.98 262.08 C 414.31 263.07 414.65 264.08 414.98 265.09 C 417.73 274.64 420.24 284.50 419.63 294.53 L 420.42 294.46 C 420.37 298.63 420.75 302.87 419.84 306.99 C 419.68 310.31 419.66 313.66 418.92 316.93 C 418.52 320.30 417.83 323.63 416.93 326.90 C 415.60 332.55 413.48 337.96 411.37 343.35 L 410.90 343.62 C 410.19 345.37 409.43 347.11 408.71 348.87 C 404.38 357.79 398.18 365.78 390.94 372.54 C 389.60 371.63 387.36 370.43 388.51 368.48 C 393.13 355.49 393.63 341.25 390.77 327.81 C 385.95 304.96 372.79 284.23 355.12 269.10 C 341.42 291.74 327.63 314.32 314.01 337.00 C 308.58 345.86 303.04 354.65 297.95 363.71 C 293.31 370.58 288.80 377.57 285.08 385.00 C 284.44 384.35 283.14 383.04 282.49 382.39 C 285.37 376.50 289.10 371.10 292.44 365.48 C 288.68 364.80 284.46 364.30 281.77 361.25 C 277.89 357.44 277.51 351.70 277.51 346.58 C 273.32 354.67 268.07 362.13 263.29 369.86 C 262.45 370.93 261.60 372.00 260.76 373.08 C 259.85 372.70 258.94 372.33 258.04 371.95 C 260.27 367.65 262.52 363.33 265.46 359.46 C 270.74 351.39 275.89 343.24 280.69 334.88 C 288.12 323.16 295.50 311.41 302.68 299.54 C 306.37 294.51 309.86 289.34 312.86 283.86 C 319.15 273.72 325.44 263.57 331.85 253.50 C 327.29 251.35 322.59 249.54 317.77 248.08 C 316.43 244.90 315.21 241.51 315.73 238.00 C 317.08 224.49 324.52 212.36 333.54 202.53 C 337.56 198.59 341.90 194.62 347.20 192.51 C 351.17 193.17 354.71 195.47 358.47 196.86 C 360.65 197.83 362.73 199.02 364.83 200.16 C 366.58 197.45 368.06 194.56 370.05 192.02 M 372.38 195.13 C 370.81 197.59 369.32 200.11 368.05 202.74 C 373.70 206.05 378.85 210.19 383.43 214.86 C 385.34 212.00 387.17 209.08 388.72 206.02 C 384.47 200.95 378.96 196.58 372.38 195.13 M 345.62 195.46 C 345.91 197.50 344.09 197.41 342.66 197.59 C 342.49 198.93 341.71 199.61 340.34 199.65 L 340.48 200.85 C 339.94 200.69 338.88 200.36 338.35 200.19 C 338.42 200.76 338.55 201.90 338.62 202.47 C 338.14 202.45 337.18 202.42 336.71 202.40 C 336.29 204.05 335.21 205.81 333.26 205.64 C 333.39 206.08 333.66 206.98 333.79 207.43 L 332.62 207.29 C 332.36 207.63 331.84 208.33 331.58 208.67 C 331.50 209.95 330.85 210.60 329.61 210.62 C 329.35 211.92 329.46 213.64 327.66 213.69 C 327.37 214.93 327.40 216.66 325.65 216.70 C 325.27 218.04 324.84 219.36 324.47 220.71 L 323.07 220.35 C 323.29 220.89 323.74 221.98 323.96 222.52 L 322.64 222.27 C 322.30 224.02 321.83 225.74 321.39 227.47 L 320.36 227.40 C 320.42 228.15 320.54 229.66 320.60 230.41 L 319.61 230.37 C 318.73 235.43 317.68 240.71 319.41 245.74 L 320.66 245.32 L 320.26 246.44 C 322.61 246.64 325.01 247.15 326.96 248.57 C 327.35 248.47 328.12 248.27 328.51 248.17 L 328.29 249.33 C 330.55 249.59 332.56 250.70 334.55 251.72 C 336.52 252.80 338.54 253.79 340.60 254.71 L 340.39 255.93 L 342.31 255.14 C 342.33 255.55 342.37 256.37 342.39 256.78 L 343.89 256.16 L 343.21 257.45 C 344.75 257.49 346.93 257.48 346.72 259.76 C 347.15 259.61 348.02 259.31 348.46 259.17 L 348.36 260.34 C 350.01 260.39 350.76 261.22 350.64 262.84 C 351.10 262.65 352.03 262.26 352.50 262.07 L 352.31 263.34 C 353.90 263.35 354.68 264.14 354.65 265.70 C 355.13 265.60 356.08 265.41 356.56 265.31 C 356.52 265.94 356.45 267.21 356.42 267.85 C 356.95 267.65 358.02 267.26 358.55 267.06 L 358.38 268.23 C 362.42 270.87 366.01 274.55 368.71 278.55 L 369.60 278.35 L 369.35 279.68 L 370.77 279.56 C 370.64 280.00 370.39 280.87 370.27 281.31 C 372.25 281.25 373.10 283.11 373.77 284.65 L 374.90 284.53 C 374.72 284.98 374.35 285.86 374.16 286.30 C 376.37 285.99 376.54 287.70 376.59 289.38 C 378.65 289.06 378.43 290.94 378.57 292.41 C 380.75 291.97 380.33 294.18 380.54 295.64 L 381.86 295.24 L 381.37 296.82 L 382.85 296.52 C 382.67 297.05 382.33 298.12 382.16 298.65 L 383.34 298.38 C 383.58 298.94 384.06 300.07 384.30 300.63 C 384.91 301.92 385.48 303.24 385.71 304.67 L 386.90 304.38 C 386.72 304.95 386.36 306.09 386.19 306.66 L 387.89 306.48 C 387.71 307.00 387.34 308.05 387.16 308.57 L 388.39 308.51 C 388.82 310.20 389.27 311.90 389.61 313.61 L 390.56 313.59 C 390.52 314.35 390.43 315.86 390.38 316.61 L 391.33 316.60 C 391.76 320.72 393.95 324.52 393.51 328.74 L 394.47 328.38 C 394.50 329.99 394.54 331.60 394.61 333.22 C 396.20 337.97 395.33 343.07 395.57 347.98 C 395.92 355.17 392.31 361.95 393.67 369.18 L 395.28 365.19 L 395.33 363.04 L 396.36 363.85 C 396.25 361.85 397.33 359.79 399.38 359.30 C 399.59 357.97 399.54 356.31 401.37 356.32 C 401.54 354.77 401.69 353.07 403.82 353.34 C 403.64 352.84 403.28 351.85 403.09 351.35 L 404.79 351.61 C 404.64 351.09 404.34 350.06 404.19 349.54 L 405.87 349.58 L 405.17 347.74 C 405.51 347.69 406.19 347.58 406.53 347.52 L 406.59 345.98 C 406.88 345.76 407.44 345.33 407.72 345.11 L 407.18 343.75 C 407.59 343.69 408.40 343.56 408.80 343.49 C 408.65 343.01 408.34 342.03 408.19 341.55 L 409.38 341.67 C 409.73 339.95 410.18 338.26 410.63 336.57 L 411.34 336.65 C 411.95 333.36 413.07 330.18 414.43 327.12 C 414.46 325.89 414.49 324.67 414.51 323.45 L 415.59 323.69 C 415.53 321.95 415.51 320.21 415.48 318.48 L 416.56 318.68 C 416.50 316.55 416.48 314.44 416.46 312.32 L 417.57 312.76 C 417.39 304.26 417.40 295.74 417.57 287.24 L 416.49 287.68 C 416.48 285.21 416.48 282.74 416.56 280.28 L 415.47 280.63 C 415.46 279.35 415.44 278.08 415.41 276.82 C 414.19 273.73 413.83 270.39 412.75 267.26 C 411.67 263.57 409.95 260.07 409.34 256.26 L 408.10 256.56 C 408.28 256.03 408.65 254.96 408.83 254.42 L 407.28 254.44 C 407.40 253.94 407.65 252.95 407.77 252.46 L 406.78 252.30 C 406.01 249.93 404.51 247.77 404.43 245.22 L 403.09 245.89 L 403.78 244.38 C 403.39 244.36 402.61 244.33 402.22 244.31 L 402.83 242.42 L 401.16 242.48 C 401.32 241.95 401.65 240.88 401.81 240.34 L 400.00 240.59 C 400.21 240.11 400.63 239.15 400.83 238.67 C 398.76 238.98 398.54 237.31 398.34 235.72 C 396.43 235.34 396.06 233.25 395.33 231.78 C 393.50 231.54 393.53 229.70 393.38 228.30 C 393.06 228.37 392.41 228.50 392.09 228.57 C 391.24 226.73 389.06 225.57 389.42 223.29 C 389.06 223.37 388.36 223.52 388.01 223.60 C 386.40 220.32 382.25 218.83 381.33 215.28 C 380.84 215.39 379.87 215.60 379.38 215.71 C 379.45 215.16 379.60 214.08 379.67 213.54 C 377.62 213.85 375.87 212.56 375.23 210.67 C 373.70 210.01 371.74 209.52 371.24 207.67 C 369.79 207.43 368.16 207.18 368.26 205.22 C 367.82 205.39 366.94 205.72 366.50 205.89 L 366.85 204.39 L 365.28 204.83 L 365.61 203.56 C 364.11 203.41 362.23 203.58 362.31 201.54 C 360.96 201.78 359.93 201.39 359.20 200.39 L 358.11 200.88 L 358.78 199.58 C 357.01 199.39 355.32 198.83 353.62 198.37 L 353.55 197.21 C 353.05 197.35 352.06 197.63 351.56 197.77 L 351.59 196.19 C 351.04 196.37 349.95 196.73 349.41 196.91 L 349.75 195.47 C 348.72 195.47 346.65 195.46 345.62 195.46 M 334.61 255.06 C 331.23 261.25 327.32 267.14 323.53 273.09 C 330.75 275.15 337.76 280.44 339.20 288.19 C 341.11 285.23 343.00 282.24 344.57 279.08 C 342.58 275.43 340.05 272.13 337.43 268.91 C 337.85 267.62 338.70 267.06 339.99 267.23 C 342.87 269.04 344.26 272.32 346.35 274.87 C 346.62 274.81 347.17 274.68 347.45 274.61 C 349.22 271.99 350.70 269.15 352.75 266.72 C 347.02 262.38 341.10 258.21 334.61 255.06 M 308.89 296.51 C 313.12 296.28 317.71 296.99 320.82 300.13 C 324.35 303.35 324.35 308.49 324.42 312.91 C 327.45 307.52 330.76 302.30 333.95 297.02 C 336.55 293.02 336.41 287.37 333.43 283.61 C 330.67 279.72 326.21 277.60 321.78 276.24 C 317.31 282.89 313.34 289.85 308.89 296.51 M 304.58 303.61 C 299.05 312.40 293.60 321.24 288.07 330.04 C 285.42 334.34 282.25 338.61 281.66 343.79 C 280.98 349.01 280.48 355.32 284.74 359.23 C 287.81 361.78 293.74 363.15 296.16 359.12 C 299.21 354.57 301.83 349.74 304.81 345.13 C 302.09 345.38 299.29 346.01 296.59 345.35 C 292.64 343.74 290.96 339.07 291.67 335.08 C 292.97 326.44 297.48 317.70 305.18 313.14 C 307.98 311.18 311.87 313.68 311.48 317.00 C 311.11 322.15 307.71 326.57 304.20 330.12 C 303.13 331.35 301.42 330.44 300.10 330.41 C 302.70 325.54 307.97 321.90 308.04 315.87 C 303.32 317.58 300.36 321.95 298.15 326.23 C 296.26 330.09 294.67 334.40 295.35 338.77 C 295.62 341.35 298.58 343.02 300.99 342.16 C 307.03 340.94 310.70 335.47 313.34 330.36 C 317.30 322.83 322.50 314.67 320.23 305.77 C 318.21 299.27 308.35 298.01 304.58 303.61 Z" />
<path fill="#480c09" opacity="1.00" d=" M 348.09 215.02 C 352.89 213.98 358.69 213.70 362.91 216.55 C 363.29 216.45 364.07 216.25 364.45 216.14 L 364.38 217.24 C 370.94 219.30 375.93 225.11 378.96 231.11 C 379.50 233.68 380.54 236.33 379.90 238.99 C 379.37 242.71 376.72 246.17 372.89 246.87 C 371.57 247.66 369.99 247.48 368.54 247.57 C 369.73 251.91 366.48 254.93 363.66 257.59 C 361.57 257.59 359.49 257.60 357.41 257.63 C 355.90 256.24 355.09 254.47 355.36 252.38 C 352.35 252.12 347.98 254.09 346.19 250.69 C 344.96 249.24 345.58 247.21 345.45 245.50 C 342.40 245.75 338.75 246.17 337.03 243.00 C 335.06 238.39 336.51 232.09 341.60 230.12 C 341.46 227.35 341.39 224.57 341.39 221.80 C 342.85 218.91 344.90 216.11 348.09 215.02 M 348.49 218.23 C 343.78 220.01 344.07 225.45 344.61 229.58 L 345.69 229.40 C 345.34 230.26 344.63 231.98 344.28 232.84 C 343.95 232.76 343.31 232.60 342.98 232.52 C 342.35 232.84 341.09 233.46 340.46 233.78 C 340.48 234.04 340.51 234.55 340.52 234.81 C 338.92 236.61 338.93 239.17 339.60 241.36 C 340.71 242.92 342.89 242.91 344.50 243.64 L 344.69 242.19 C 345.12 242.33 345.96 242.61 346.38 242.75 L 346.41 241.74 C 347.64 239.91 349.44 239.00 351.66 239.22 C 351.66 240.20 351.68 241.19 351.70 242.17 C 351.13 242.55 349.99 243.31 349.42 243.69 L 349.66 244.63 L 348.53 244.39 C 348.48 246.14 348.46 247.88 348.45 249.63 C 350.17 249.64 351.89 249.58 353.61 249.51 L 353.32 248.30 L 354.38 248.54 C 354.90 247.15 355.41 245.75 355.91 244.35 C 357.21 244.33 358.52 244.32 359.83 244.34 C 359.47 246.32 358.63 248.16 357.56 249.86 C 357.71 251.36 358.01 252.84 358.44 254.29 C 358.80 254.63 359.53 255.31 359.89 255.65 C 361.43 254.97 362.93 254.19 364.36 253.30 C 364.77 252.03 365.26 250.80 365.68 249.54 L 366.38 249.54 C 366.34 248.24 366.32 246.94 366.30 245.64 C 368.52 244.72 371.02 244.64 373.16 243.51 C 373.48 243.54 374.13 243.60 374.46 243.63 L 374.40 242.39 L 375.20 242.51 C 375.46 242.16 375.99 241.47 376.25 241.12 C 378.48 236.95 376.37 232.53 374.35 228.76 C 372.23 226.14 369.84 223.76 367.17 221.72 C 361.60 218.10 355.00 216.49 348.41 217.63 L 348.49 218.23 Z" />
<path fill="#480c09" opacity="1.00" d=" M 350.52 224.94 C 351.74 223.97 352.90 222.92 354.08 221.90 C 355.72 221.70 357.41 221.51 359.04 221.91 C 361.89 223.64 362.24 227.14 361.12 230.03 C 360.38 230.81 359.54 231.42 358.57 231.88 L 358.52 232.65 C 355.62 232.76 352.31 233.23 350.35 230.58 C 350.34 228.70 350.39 226.82 350.52 224.94 Z" />
<path fill="#480c09" opacity="1.00" d=" M 132.46 229.35 C 134.26 228.65 134.48 230.96 135.14 232.07 C 136.69 235.27 135.74 239.02 133.83 241.84 C 131.49 245.60 128.51 248.89 125.66 252.26 C 121.20 249.76 118.45 245.17 116.11 240.80 C 114.29 237.58 114.25 233.80 114.89 230.26 C 117.06 231.32 118.25 233.47 119.90 235.12 C 122.49 235.13 125.07 234.82 127.61 234.35 C 130.18 233.90 130.95 231.09 132.46 229.35 Z" />
<path fill="#480c09" opacity="1.00" d=" M 361.47 232.90 C 363.50 230.66 366.29 230.01 369.21 230.45 C 370.35 231.53 371.45 232.67 372.49 233.86 C 372.95 236.81 372.25 239.63 370.09 241.77 C 369.72 241.67 368.98 241.46 368.61 241.36 L 368.47 242.61 C 365.80 242.54 362.56 241.80 361.43 239.06 C 361.11 237.02 361.35 234.95 361.47 232.90 Z" />
<path fill="#480c09" opacity="1.00" d=" M 332.38 265.10 C 332.75 264.35 333.48 262.85 333.85 262.09 C 336.33 262.90 337.20 264.75 335.28 266.77 C 334.55 266.35 333.11 265.52 332.38 265.10 Z" />
<path fill="#480c09" opacity="1.00" d=" M 217.78 288.81 C 236.86 284.08 255.03 275.30 270.00 262.47 C 271.08 264.63 269.19 266.36 268.28 268.11 C 264.92 273.08 261.82 278.26 257.94 282.85 C 248.91 293.09 238.21 301.84 226.42 308.71 C 200.02 324.14 168.23 329.48 138.09 325.23 C 132.63 324.35 127.52 322.12 122.38 320.15 C 118.58 318.48 114.15 317.33 111.71 313.67 C 117.86 312.32 124.50 311.83 129.89 308.26 C 131.91 310.83 134.17 313.43 137.38 314.49 C 145.29 317.61 153.85 315.65 162.06 315.47 C 164.88 315.40 167.32 313.84 169.66 312.43 C 177.87 316.37 187.24 316.16 196.11 315.60 C 200.88 315.40 205.45 313.23 208.67 309.73 C 214.22 304.17 216.47 296.34 217.78 288.81 Z" />
<path fill="#480c09" opacity="1.00" d=" M 129.28 371.28 C 130.74 371.30 132.20 371.31 133.66 371.33 C 133.58 374.50 133.53 377.72 132.48 380.75 C 130.75 379.26 129.01 377.78 127.12 376.50 C 127.79 374.73 128.51 373.00 129.28 371.28 Z" />
<path fill="#480c09" opacity="1.00" d=" M 116.49 394.35 C 119.18 395.20 121.90 395.96 124.62 396.74 C 122.52 400.51 119.09 404.37 114.30 403.72 C 114.22 400.44 114.77 397.19 116.49 394.35 Z" />
<path fill="#480c09" opacity="1.00" d=" M 235.99 407.01 C 237.61 404.43 239.36 401.90 240.55 399.08 C 241.37 400.05 242.21 401.01 243.06 401.97 C 242.13 403.59 241.14 405.19 240.48 406.95 C 241.62 410.81 244.04 414.28 247.15 416.82 C 250.34 419.42 254.41 420.46 258.26 421.66 C 261.06 417.31 263.61 412.81 266.43 408.48 C 266.46 411.15 267.22 414.18 265.51 416.55 C 258.68 427.73 251.86 438.93 245.12 450.18 C 244.09 451.69 243.04 453.77 240.90 453.73 C 233.17 454.04 225.73 449.94 220.73 444.22 C 218.36 441.54 216.54 437.26 219.00 434.06 C 224.76 425.11 230.32 416.02 235.99 407.01 M 237.47 411.23 C 235.22 414.39 233.40 417.83 231.27 421.07 C 232.75 423.37 234.23 425.80 236.60 427.29 C 238.54 428.81 241.21 429.58 242.45 431.86 C 242.11 432.29 241.43 433.14 241.09 433.57 C 236.30 432.55 232.76 428.74 229.53 425.31 C 229.31 425.31 228.89 425.32 228.67 425.33 C 226.62 428.17 224.99 431.30 223.05 434.22 C 231.30 435.52 237.28 441.59 242.82 447.29 C 247.16 439.69 252.21 432.49 256.17 424.67 C 252.07 423.50 247.82 422.22 244.61 419.27 C 241.88 417.17 240.18 414.15 238.23 411.38 C 238.04 411.35 237.66 411.27 237.47 411.23 Z" />
<path fill="#480c09" opacity="1.00" d=" M 269.51 408.53 C 275.33 408.36 280.87 410.18 286.60 410.73 C 287.05 416.16 283.65 420.64 280.31 424.52 C 278.68 424.55 277.06 424.59 275.44 424.64 C 271.58 420.18 268.37 414.67 269.51 408.53 Z" />
<path fill="#480c09" opacity="1.00" d=" M 245.21 432.15 C 246.41 432.23 247.61 432.31 248.82 432.41 C 248.62 433.37 248.39 434.32 248.14 435.28 C 247.40 435.29 245.92 435.30 245.18 435.31 C 245.19 434.52 245.21 432.94 245.21 432.15 Z" />
</g>
</svg>
