<?xml version="1.0" encoding="UTF-8" ?>
<!DOCTYPE svg PUBLIC "-//W3C//DTD SVG 1.1//EN" "http://www.w3.org/Graphics/SVG/1.1/DTD/svg11.dtd">
<svg width="1024pt" height="1024pt" viewBox="0 0 1024 1024" version="1.1" xmlns="http://www.w3.org/2000/svg">
<g id="#ffffffff">
<path fill="#ffffff" opacity="1.00" d=" M 500.54 0.00 L 523.29 0.00 C 601.89 1.71 680.06 21.62 749.64 58.28 C 814.06 92.04 871.10 139.73 915.83 197.08 C 953.58 245.38 982.58 300.51 1000.84 359.04 C 1015.20 404.80 1022.83 452.61 1024.00 500.54 L 1024.00 523.40 C 1022.26 602.66 1002.00 681.50 964.73 751.52 C 930.92 815.39 883.39 871.92 826.35 916.28 C 769.22 960.82 702.53 993.06 632.07 1009.92 C 596.51 1018.51 560.03 1023.06 523.48 1024.00 L 500.73 1024.00 C 442.32 1022.65 384.10 1011.51 329.51 990.60 C 270.94 968.29 216.59 935.03 169.98 893.13 C 115.89 844.63 72.26 784.53 43.04 718.01 C 16.03 656.83 1.54 590.28 0.00 523.46 L 0.00 500.61 C 0.92 464.31 5.42 428.07 13.89 392.75 C 30.69 321.99 62.99 255.02 107.70 197.68 C 154.91 136.97 215.91 87.01 284.88 52.93 C 351.69 19.64 425.94 1.69 500.54 0.00 M 478.59 56.89 C 424.07 60.79 370.27 74.61 320.67 97.60 C 257.55 126.71 201.34 170.57 157.56 224.54 C 113.31 278.94 81.83 343.68 66.63 412.15 C 46.84 500.71 53.94 595.17 87.41 679.56 C 112.68 743.70 152.83 801.86 203.65 848.41 C 252.17 892.96 310.43 926.88 373.21 946.84 C 432.95 965.94 496.65 972.29 559.02 965.92 C 608.94 960.85 658.01 947.42 703.54 926.31 C 768.73 896.20 826.53 850.36 870.88 793.90 C 917.62 734.62 949.29 663.54 961.84 589.08 C 972.57 525.75 969.98 460.14 953.95 397.92 C 938.80 338.81 911.46 282.89 874.30 234.51 C 831.01 177.98 774.35 131.76 710.21 100.84 C 638.65 66.13 557.87 51.04 478.59 56.89 Z" />
<path fill="#ffffff" opacity="1.00" d=" M 476.48 186.79 C 480.65 186.46 484.80 185.68 489.01 185.75 C 536.67 186.78 584.51 190.62 631.07 201.27 C 668.19 209.72 704.37 222.78 737.67 241.34 C 765.31 256.89 791.58 275.41 813.60 298.35 C 836.53 322.22 854.46 351.15 864.01 382.93 C 870.41 404.57 874.00 427.46 870.89 449.99 C 866.67 482.23 851.22 512.00 831.23 537.26 C 827.41 541.79 824.06 546.70 820.13 551.14 C 816.21 555.77 810.38 558.01 805.98 562.08 C 797.94 568.59 792.52 578.50 792.62 588.97 C 792.62 605.49 800.53 620.44 805.11 635.95 C 813.93 664.60 815.78 695.66 808.35 724.83 C 803.52 744.03 794.92 762.20 783.59 778.41 C 768.41 800.52 744.72 817.49 717.84 821.30 C 688.67 825.84 658.91 814.90 636.51 796.43 C 630.92 792.10 626.21 786.38 619.52 783.68 C 616.15 782.25 612.26 783.16 609.48 785.40 C 604.72 789.02 601.58 794.20 597.77 798.70 C 586.81 811.98 573.28 823.44 557.41 830.38 C 538.22 838.81 516.28 840.34 495.91 835.80 C 477.23 831.61 460.60 820.12 449.28 804.78 C 444.80 799.21 441.94 792.35 436.44 787.62 C 433.60 785.10 429.77 783.57 425.94 784.04 C 420.81 784.59 416.26 787.29 411.99 790.01 C 396.27 800.33 378.68 807.96 360.17 811.51 C 336.58 816.12 311.58 813.81 289.46 804.28 C 264.25 793.62 243.35 773.98 229.73 750.38 C 210.46 716.93 203.70 676.37 211.70 638.55 C 214.43 625.11 218.83 612.04 224.33 599.48 C 227.19 593.01 230.85 586.41 230.35 579.10 C 229.94 572.57 225.62 567.19 221.12 562.82 C 196.78 540.00 175.88 512.82 163.66 481.57 C 150.88 449.24 148.35 412.85 157.19 379.19 C 164.45 350.87 179.70 324.97 199.65 303.73 C 222.62 278.52 249.65 257.06 279.34 240.27 C 312.01 221.71 347.66 208.77 384.16 200.13 C 414.43 192.70 445.51 189.61 476.48 186.79 M 463.56 250.80 C 418.35 254.06 373.29 263.97 332.09 283.16 C 307.14 294.82 283.52 309.57 262.77 327.73 C 241.80 346.21 224.47 370.24 218.87 398.05 C 214.21 421.26 216.90 445.98 226.39 467.67 C 235.62 488.28 251.21 505.16 267.53 520.43 C 279.13 531.48 292.09 541.44 301.20 554.82 C 306.21 562.13 309.46 571.19 307.81 580.13 C 305.83 591.97 298.14 601.69 290.77 610.76 C 278.14 626.93 272.67 647.69 272.62 667.99 C 272.74 682.79 273.55 698.18 280.23 711.69 C 288.17 728.45 302.58 742.30 320.12 748.60 C 331.56 752.75 344.32 753.29 355.99 749.75 C 371.01 745.15 384.66 735.54 393.19 722.23 C 402.95 707.22 406.82 689.38 409.95 672.00 C 411.45 663.71 410.47 654.48 415.18 647.10 C 421.70 639.89 429.25 633.55 437.46 628.33 C 443.72 624.63 450.63 621.07 458.07 621.02 C 466.99 622.21 474.84 627.70 480.96 634.07 C 485.42 638.51 487.42 644.79 487.65 650.97 C 488.20 662.39 485.18 673.60 485.02 685.00 C 484.49 704.31 481.81 723.79 485.12 743.00 C 486.83 752.52 491.11 762.06 498.92 768.10 C 507.65 774.89 519.75 776.11 530.19 773.20 C 539.66 770.50 547.03 763.22 552.15 755.07 C 559.05 744.15 564.02 731.90 565.85 719.07 C 568.39 702.04 566.02 684.73 562.24 668.08 C 557.21 646.42 571.05 622.07 592.36 615.58 C 602.99 612.21 615.27 614.81 623.36 622.56 C 633.49 631.86 637.59 645.67 639.43 658.88 C 641.97 677.09 643.33 695.76 650.12 713.04 C 655.59 727.65 665.38 740.83 678.64 749.24 C 687.63 754.96 698.10 759.98 709.05 758.59 C 718.44 757.45 726.18 750.88 731.28 743.24 C 741.98 727.14 748.99 708.36 750.06 688.97 C 751.40 667.24 745.15 645.48 734.16 626.83 C 723.67 609.73 718.12 588.50 723.90 568.80 C 728.14 553.72 738.06 540.85 749.89 530.86 C 770.90 514.05 786.86 491.55 798.17 467.28 C 808.00 446.08 809.26 421.38 802.71 399.05 C 794.31 369.75 774.57 344.85 750.99 326.07 C 723.66 304.67 692.94 287.62 660.39 275.56 C 623.11 261.69 583.66 254.38 544.09 251.33 C 517.30 249.33 490.36 248.73 463.56 250.80 Z" />
<path fill="#ffffff" opacity="1.00" d=" M 410.48 310.66 C 426.26 308.43 442.71 310.69 456.93 318.02 C 489.67 334.66 511.74 370.33 512.31 407.02 C 512.70 444.59 493.89 481.50 464.04 504.12 C 449.02 515.52 430.94 523.20 412.05 524.73 C 396.17 526.21 380.00 522.52 366.06 514.85 C 334.85 497.82 314.10 463.49 313.15 428.00 C 312.59 399.69 322.11 371.12 340.29 349.32 C 357.67 328.16 383.23 313.82 410.48 310.66 Z" />
<path fill="#ffffff" opacity="1.00" d=" M 624.56 339.77 C 643.01 337.07 662.19 339.16 679.44 346.32 C 710.10 358.78 734.31 385.83 743.57 417.57 C 751.09 442.98 748.84 471.25 736.96 494.97 C 729.44 510.14 717.99 523.33 704.03 532.92 C 675.04 553.04 635.67 556.66 603.34 542.67 C 568.91 528.24 541.98 495.54 537.30 458.15 C 533.34 423.73 545.70 386.99 571.97 363.87 C 586.58 350.83 605.19 342.48 624.56 339.77 Z" />
</g>
<g id="#ed1c24ff">
<path fill="#ed1c24" opacity="1.00" d=" M 478.59 56.89 C 557.87 51.04 638.65 66.13 710.21 100.84 C 774.35 131.76 831.01 177.98 874.30 234.51 C 911.46 282.89 938.80 338.81 953.95 397.92 C 969.98 460.14 972.57 525.75 961.84 589.08 C 949.29 663.54 917.62 734.62 870.88 793.90 C 826.53 850.36 768.73 896.20 703.54 926.31 C 658.01 947.42 608.94 960.85 559.02 965.92 C 496.65 972.29 432.95 965.94 373.21 946.84 C 310.43 926.88 252.17 892.96 203.65 848.41 C 152.83 801.86 112.68 743.70 87.41 679.56 C 53.94 595.17 46.84 500.71 66.63 412.15 C 81.83 343.68 113.31 278.94 157.56 224.54 C 201.34 170.57 257.55 126.71 320.67 97.60 C 370.27 74.61 424.07 60.79 478.59 56.89 M 476.48 186.79 C 445.51 189.61 414.43 192.70 384.16 200.13 C 347.66 208.77 312.01 221.71 279.34 240.27 C 249.65 257.06 222.62 278.52 199.65 303.73 C 179.70 324.97 164.45 350.87 157.19 379.19 C 148.35 412.85 150.88 449.24 163.66 481.57 C 175.88 512.82 196.78 540.00 221.12 562.82 C 225.62 567.19 229.94 572.57 230.35 579.10 C 230.85 586.41 227.19 593.01 224.33 599.48 C 218.83 612.04 214.43 625.11 211.70 638.55 C 203.70 676.37 210.46 716.93 229.73 750.38 C 243.35 773.98 264.25 793.62 289.46 804.28 C 311.58 813.81 336.58 816.12 360.17 811.51 C 378.68 807.96 396.27 800.33 411.99 790.01 C 416.26 787.29 420.81 784.59 425.94 784.04 C 429.77 783.57 433.60 785.10 436.44 787.62 C 441.94 792.35 444.80 799.21 449.28 804.78 C 460.60 820.12 477.23 831.61 495.91 835.80 C 516.28 840.34 538.22 838.81 557.41 830.38 C 573.28 823.44 586.81 811.98 597.77 798.70 C 601.58 794.20 604.72 789.02 609.48 785.40 C 612.26 783.16 616.15 782.25 619.52 783.68 C 626.21 786.38 630.92 792.10 636.51 796.43 C 658.91 814.90 688.67 825.84 717.84 821.30 C 744.72 817.49 768.41 800.52 783.59 778.41 C 794.92 762.20 803.52 744.03 808.35 724.83 C 815.78 695.66 813.93 664.60 805.11 635.95 C 800.53 620.44 792.62 605.49 792.62 588.97 C 792.52 578.50 797.94 568.59 805.98 562.08 C 810.38 558.01 816.21 555.77 820.13 551.14 C 824.06 546.70 827.41 541.79 831.23 537.26 C 851.22 512.00 866.67 482.23 870.89 449.99 C 874.00 427.46 870.41 404.57 864.01 382.93 C 854.46 351.15 836.53 322.22 813.60 298.35 C 791.58 275.41 765.31 256.89 737.67 241.34 C 704.37 222.78 668.19 209.72 631.07 201.27 C 584.51 190.62 536.67 186.78 489.01 185.75 C 484.80 185.68 480.65 186.46 476.48 186.79 Z" />
<path fill="#ed1c24" opacity="1.00" d=" M 463.56 250.80 C 490.36 248.73 517.30 249.33 544.09 251.33 C 583.66 254.38 623.11 261.69 660.39 275.56 C 692.94 287.62 723.66 304.67 750.99 326.07 C 774.57 344.85 794.31 369.75 802.71 399.05 C 809.26 421.38 808.00 446.08 798.17 467.28 C 786.86 491.55 770.90 514.05 749.89 530.86 C 738.06 540.85 728.14 553.72 723.90 568.80 C 718.12 588.50 723.67 609.73 734.16 626.83 C 745.15 645.48 751.40 667.24 750.06 688.97 C 748.99 708.36 741.98 727.14 731.28 743.24 C 726.18 750.88 718.44 757.45 709.05 758.59 C 698.10 759.98 687.63 754.96 678.64 749.24 C 665.38 740.83 655.59 727.65 650.12 713.04 C 643.33 695.76 641.97 677.09 639.43 658.88 C 637.59 645.67 633.49 631.86 623.36 622.56 C 615.27 614.81 602.99 612.21 592.36 615.58 C 571.05 622.07 557.21 646.42 562.24 668.08 C 566.02 684.73 568.39 702.04 565.85 719.07 C 564.02 731.90 559.05 744.15 552.15 755.07 C 547.03 763.22 539.66 770.50 530.19 773.20 C 519.75 776.11 507.65 774.89 498.92 768.10 C 491.11 762.06 486.83 752.52 485.12 743.00 C 481.81 723.79 484.49 704.31 485.02 685.00 C 485.18 673.60 488.20 662.39 487.65 650.97 C 487.42 644.79 485.42 638.51 480.96 634.07 C 474.84 627.70 466.99 622.21 458.07 621.02 C 450.63 621.07 443.72 624.63 437.46 628.33 C 429.25 633.55 421.70 639.89 415.18 647.10 C 410.47 654.48 411.45 663.71 409.95 672.00 C 406.82 689.38 402.95 707.22 393.19 722.23 C 384.66 735.54 371.01 745.15 355.99 749.75 C 344.32 753.29 331.56 752.75 320.12 748.60 C 302.58 742.30 288.17 728.45 280.23 711.69 C 273.55 698.18 272.74 682.79 272.62 667.99 C 272.67 647.69 278.14 626.93 290.77 610.76 C 298.14 601.69 305.83 591.97 307.81 580.13 C 309.46 571.19 306.21 562.13 301.20 554.82 C 292.09 541.44 279.13 531.48 267.53 520.43 C 251.21 505.16 235.62 488.28 226.39 467.67 C 216.90 445.98 214.21 421.26 218.87 398.05 C 224.47 370.24 241.80 346.21 262.77 327.73 C 283.52 309.57 307.14 294.82 332.09 283.16 C 373.29 263.97 418.35 254.06 463.56 250.80 M 410.48 310.66 C 383.23 313.82 357.67 328.16 340.29 349.32 C 322.11 371.12 312.59 399.69 313.15 428.00 C 314.10 463.49 334.85 497.82 366.06 514.85 C 380.00 522.52 396.17 526.21 412.05 524.73 C 430.94 523.20 449.02 515.52 464.04 504.12 C 493.89 481.50 512.70 444.59 512.31 407.02 C 511.74 370.33 489.67 334.66 456.93 318.02 C 442.71 310.69 426.26 308.43 410.48 310.66 M 624.56 339.77 C 605.19 342.48 586.58 350.83 571.97 363.87 C 545.70 386.99 533.34 423.73 537.30 458.15 C 541.98 495.54 568.91 528.24 603.34 542.67 C 635.67 556.66 675.04 553.04 704.03 532.92 C 717.99 523.33 729.44 510.14 736.96 494.97 C 748.84 471.25 751.09 442.98 743.57 417.57 C 734.31 385.83 710.10 358.78 679.44 346.32 C 662.19 339.16 643.01 337.07 624.56 339.77 Z" />
</g>
</svg>
